<svg width="43" height="42" viewBox="0 0 43 42" fill="none" xmlns="http://www.w3.org/2000/svg">
<g id="vuesax/outline/danger">
<g id="danger">
<path id="Union" fill-rule="evenodd" clip-rule="evenodd" d="M10.8951 38.7797H32.1051C35.5176 38.7797 38.1251 37.5372 39.4551 35.3147C40.7851 33.0572 40.5926 30.1872 38.9301 27.1947L28.3251 8.10223C26.5751 4.95223 24.1601 3.21973 21.5001 3.21973C18.8401 3.21973 16.4251 4.95223 14.6751 8.10223L4.07008 27.1772C2.40758 30.1697 2.23258 33.0572 3.54508 35.2972C4.87508 37.5372 7.48258 38.7797 10.8951 38.7797ZM16.9676 9.37973C18.2451 7.10473 19.8551 5.84473 21.5001 5.84473C23.1451 5.84473 24.7551 7.10473 26.0326 9.37973L36.6551 28.4722C37.8451 30.6247 38.0551 32.5672 37.2151 33.9847C36.3751 35.4022 34.5726 36.1722 32.1226 36.1722H10.9126C8.46258 36.1722 6.64258 35.4022 5.82008 33.9847C4.99758 32.5672 5.19008 30.6072 6.38008 28.4722L16.9676 9.37973ZM21.5002 25.8125C20.7827 25.8125 20.1877 25.2175 20.1877 24.5V15.75C20.1877 15.0325 20.7827 14.4375 21.5002 14.4375C22.2177 14.4375 22.8127 15.0325 22.8127 15.75V24.5C22.8127 25.2175 22.2177 25.8125 21.5002 25.8125ZM21.5002 31.4998C21.3952 31.4998 21.2727 31.4823 21.1502 31.4648L21.1502 31.4648C21.0452 31.4473 20.9402 31.4123 20.8352 31.3598C20.7302 31.3248 20.6252 31.2723 20.5202 31.2023L20.2577 30.9923C19.9427 30.6598 19.7502 30.2048 19.7502 29.7498C19.7502 29.2948 19.9427 28.8398 20.2577 28.5073L20.5202 28.2973C20.6252 28.2273 20.7302 28.1748 20.8352 28.1398C20.9402 28.0873 21.0452 28.0523 21.1502 28.0348C21.3777 27.9823 21.6227 27.9823 21.8327 28.0348C21.9552 28.0523 22.0602 28.0873 22.1652 28.1398C22.2702 28.1748 22.3752 28.2273 22.4802 28.2973L22.7427 28.5073C23.0577 28.8398 23.2502 29.2948 23.2502 29.7498C23.2502 30.2048 23.0577 30.6598 22.7427 30.9923L22.4802 31.2023C22.3752 31.2723 22.2702 31.3248 22.1652 31.3598C22.0602 31.4123 21.9552 31.4473 21.8327 31.4648C21.7277 31.4823 21.6052 31.4998 21.5002 31.4998Z" fill="#0958D9"/>
</g>
</g>
</svg>
