<svg width="43" height="42" viewBox="0 0 43 42" fill="none" xmlns="http://www.w3.org/2000/svg">
<g id="Icon/Insurance">
<g id="Group 1000005757">
<path id="Vector 116 (Stroke)" fill-rule="evenodd" clip-rule="evenodd" d="M20.0879 2.3335L33.3489 8.0799L33.5001 8.76716C34.3498 12.6276 34.3398 18.3143 32.5531 23.8378C30.7576 29.3883 27.1328 34.8663 20.6845 38.09L20.0986 38.3829L19.5018 38.1129C12.3175 34.8629 8.43028 29.2149 6.58556 23.559C4.7549 17.9461 4.90848 12.2572 5.84956 8.71005L6.02565 8.0463L20.0879 2.3335ZM8.35345 10.0719C7.69104 13.1573 7.65089 17.9478 9.20261 22.7054C10.8024 27.6103 14.0684 32.4155 20.0381 35.324C25.3159 32.4723 28.3658 27.8383 29.934 22.9905C31.4622 18.2663 31.5524 13.4207 30.9471 10.0392L20.0536 5.31868L8.35345 10.0719Z" fill="#0958D9"/>
<path id="Vector 117 (Stroke)" fill-rule="evenodd" clip-rule="evenodd" d="M26.0464 15.7398C26.5851 16.2761 26.587 17.1476 26.0507 17.6863L18.8318 24.9374C18.316 25.4555 17.4851 25.48 16.9398 24.993L12.8791 21.3675C12.3121 20.8612 12.2629 19.9911 12.7691 19.4241C13.2754 18.8571 14.1455 18.8078 14.7125 19.3141L17.8007 22.0715L24.0999 15.7442C24.6362 15.2055 25.5077 15.2035 26.0464 15.7398Z" fill="#0958D9"/>
</g>
</g>
</svg>
