<svg width="42" height="42" viewBox="0 0 42 42" fill="none" xmlns="http://www.w3.org/2000/svg">
<path d="M12.1406 10.5C11.9602 10.5 11.8125 10.6477 11.8125 10.8281V12.7969C11.8125 12.9773 11.9602 13.125 12.1406 13.125H27.8906C28.0711 13.125 28.2188 12.9773 28.2188 12.7969V10.8281C28.2188 10.6477 28.0711 10.5 27.8906 10.5H12.1406ZM20.0156 18.7031V16.7344C20.0156 16.5539 19.868 16.4062 19.6875 16.4062H12.1406C11.9602 16.4062 11.8125 16.5539 11.8125 16.7344V18.7031C11.8125 18.8836 11.9602 19.0312 12.1406 19.0312H19.6875C19.868 19.0312 20.0156 18.8836 20.0156 18.7031ZM18.0469 34.9453H8.53125V6.07031H31.5V20.1797C31.5 20.3602 31.6477 20.5078 31.8281 20.5078H34.125C34.3055 20.5078 34.4531 20.3602 34.4531 20.1797V4.42969C34.4531 3.70371 33.8666 3.11719 33.1406 3.11719H6.89062C6.16465 3.11719 5.57812 3.70371 5.57812 4.42969V36.5859C5.57812 37.3119 6.16465 37.8984 6.89062 37.8984H18.0469C18.2273 37.8984 18.375 37.7508 18.375 37.5703V35.2734C18.375 35.093 18.2273 34.9453 18.0469 34.9453ZM22.3166 30.2039C22.3904 28.7889 22.9811 27.4641 23.99 26.4551C25.0646 25.3805 26.533 24.7734 28.0547 24.7734C29.5887 24.7734 31.0324 25.3723 32.1193 26.4551C32.2506 26.5863 32.3777 26.7258 32.4967 26.8693L31.5492 27.6035C31.5004 27.6413 31.4632 27.6921 31.4419 27.7501C31.4207 27.8081 31.4162 27.8709 31.429 27.9313C31.4419 27.9917 31.4715 28.0473 31.5146 28.0916C31.5576 28.1359 31.6123 28.1672 31.6723 28.1818L35.499 29.1047C35.7041 29.1539 35.901 28.998 35.9051 28.7889L35.9297 24.876C35.9303 24.8143 35.9135 24.7538 35.8813 24.7012C35.849 24.6487 35.8026 24.6063 35.7474 24.5789C35.6922 24.5515 35.6304 24.5402 35.569 24.5463C35.5077 24.5524 35.4493 24.5757 35.4006 24.6135L34.568 25.2615C33.034 23.3625 30.6838 22.1484 28.0547 22.1484C23.5471 22.1484 19.868 25.7127 19.6875 30.1752C19.6793 30.3598 19.8311 30.5156 20.0156 30.5156H21.9885C22.1648 30.5156 22.3084 30.3803 22.3166 30.2039ZM36.0938 30.5156H34.1209C33.9445 30.5156 33.801 30.651 33.7928 30.8273C33.7189 32.2424 33.1283 33.5672 32.1193 34.5762C31.0447 35.6508 29.5764 36.2578 28.0547 36.2578C26.5207 36.2578 25.077 35.659 23.99 34.5762C23.8588 34.4449 23.7316 34.3055 23.6127 34.1619L24.5602 33.4277C24.609 33.3899 24.6462 33.3391 24.6675 33.2811C24.6887 33.2231 24.6932 33.1603 24.6803 33.0999C24.6675 33.0395 24.6378 32.9839 24.5948 32.9396C24.5518 32.8953 24.4971 32.864 24.4371 32.8494L20.6104 31.9266C20.4053 31.8773 20.2084 32.0332 20.2043 32.2424L20.1797 36.1553C20.1791 36.2169 20.1959 36.2775 20.2281 36.33C20.2604 36.3826 20.3067 36.425 20.362 36.4524C20.4172 36.4797 20.479 36.491 20.5403 36.4849C20.6017 36.4788 20.6601 36.4555 20.7088 36.4178L21.5414 35.7697C23.0754 37.6688 25.4256 38.8828 28.0547 38.8828C32.5623 38.8828 36.2414 35.3186 36.4219 30.8561C36.4301 30.6715 36.2783 30.5156 36.0938 30.5156Z" fill="#0958D9"/>
</svg>
