<svg width="42" height="44" viewBox="0 0 42 44" fill="none" xmlns="http://www.w3.org/2000/svg">
<path d="M35.052 12.4008L26.2254 3.15391C25.9793 2.89609 25.6471 2.75 25.2984 2.75H7.875C7.14902 2.75 6.5625 3.36445 6.5625 4.125V39.875C6.5625 40.6355 7.14902 41.25 7.875 41.25H34.125C34.851 41.25 35.4375 40.6355 35.4375 39.875V13.3762C35.4375 13.0109 35.298 12.6586 35.052 12.4008ZM32.4105 14.0078H24.6914V5.92109L32.4105 14.0078ZM32.4844 38.1562H9.51562V5.84375H21.9023V15.125C21.9023 15.6036 22.0838 16.0627 22.4069 16.4011C22.73 16.7396 23.1681 16.9297 23.625 16.9297H32.4844V38.1562ZM22.3125 20.2812C22.3125 20.0922 22.1648 19.9375 21.9844 19.9375H20.0156C19.8352 19.9375 19.6875 20.0922 19.6875 20.2812V24.9219H15.2578C15.0773 24.9219 14.9297 25.0766 14.9297 25.2656V27.3281C14.9297 27.5172 15.0773 27.6719 15.2578 27.6719H19.6875V32.3125C19.6875 32.5016 19.8352 32.6562 20.0156 32.6562H21.9844C22.1648 32.6562 22.3125 32.5016 22.3125 32.3125V27.6719H26.7422C26.9227 27.6719 27.0703 27.5172 27.0703 27.3281V25.2656C27.0703 25.0766 26.9227 24.9219 26.7422 24.9219H22.3125V20.2812Z" fill="#0958D9"/>
</svg>
