<svg width="75" height="75" viewBox="0 0 75 75" fill="none" xmlns="http://www.w3.org/2000/svg">
<circle cx="37.5" cy="37.5" r="37.5" fill="#E6F4FF"/>
<path d="M38 17.875C26.8863 17.875 17.875 26.8863 17.875 38C17.875 49.1137 26.8863 58.125 38 58.125C49.1137 58.125 58.125 49.1137 58.125 38C58.125 26.8863 49.1137 17.875 38 17.875ZM38 54.7109C28.773 54.7109 21.2891 47.227 21.2891 38C21.2891 28.773 28.773 21.2891 38 21.2891C47.227 21.2891 54.7109 28.773 54.7109 38C54.7109 47.227 47.227 54.7109 38 54.7109Z" fill="#0958D9"/>
<path d="M45.8478 43.6871L39.442 39.0556V27.9375C39.442 27.7398 39.2803 27.5781 39.0826 27.5781H36.9219C36.7242 27.5781 36.5625 27.7398 36.5625 27.9375V40.3089C36.5625 40.4257 36.6164 40.5336 36.7107 40.6009L44.1408 46.0185C44.3025 46.1353 44.5271 46.0994 44.6439 45.9421L45.9287 44.1902C46.0455 44.024 46.0095 43.7994 45.8478 43.6871Z" fill="#0958D9"/>
</svg>
