<svg width="26" height="29" viewBox="0 0 26 29" fill="none" xmlns="http://www.w3.org/2000/svg">
<rect x="0.5" y="0.5" width="25" height="27.4528" rx="2.06604" stroke="#F0F0F0"/>
<rect x="3.9248" y="2.94141" width="11.7736" height="1.96226" rx="0.981132" fill="black" fill-opacity="0.06"/>
<rect x="3.9248" y="21.0938" width="16.1887" height="2.9434" rx="1.4717" fill="black" fill-opacity="0.06"/>
<path d="M9.07212 12.6754H8.15998C8.13396 12.5259 8.086 12.3933 8.01608 12.2779C7.94617 12.1608 7.85918 12.0617 7.75512 11.9804C7.65106 11.8991 7.53237 11.8381 7.39904 11.7974C7.26734 11.7552 7.12508 11.734 6.97224 11.734C6.70071 11.734 6.46007 11.8023 6.25033 11.9389C6.04058 12.0738 5.87636 12.2722 5.75767 12.534C5.63898 12.7941 5.57963 13.112 5.57963 13.4876C5.57963 13.8697 5.63898 14.1916 5.75767 14.4534C5.87799 14.7135 6.04221 14.9103 6.25033 15.0436C6.46007 15.1753 6.69989 15.2412 6.9698 15.2412C7.11938 15.2412 7.25921 15.2216 7.38929 15.1826C7.52099 15.142 7.63887 15.0826 7.74293 15.0046C7.84861 14.9265 7.93723 14.8306 8.00877 14.7168C8.08193 14.603 8.13234 14.4729 8.15998 14.3266L9.07212 14.3314C9.03798 14.5688 8.964 14.7916 8.85019 14.9997C8.738 15.2078 8.59085 15.3916 8.40875 15.5509C8.22664 15.7086 8.01365 15.8322 7.76976 15.9216C7.52587 16.0094 7.25515 16.0533 6.9576 16.0533C6.5186 16.0533 6.12675 15.9517 5.78206 15.7484C5.43736 15.5452 5.16583 15.2517 4.96747 14.868C4.7691 14.4843 4.66992 14.0241 4.66992 13.4876C4.66992 12.9494 4.76992 12.4893 4.96991 12.1072C5.1699 11.7235 5.44224 11.43 5.78694 11.2267C6.13163 11.0235 6.52186 10.9219 6.9576 10.9219C7.23564 10.9219 7.49416 10.9609 7.73317 11.0389C7.97218 11.117 8.18518 11.2316 8.37216 11.3828C8.55914 11.5324 8.71279 11.7161 8.83311 11.934C8.95506 12.1503 9.03473 12.3974 9.07212 12.6754Z" fill="black" fill-opacity="0.88"/>
<path d="M12.6152 12.3633C12.5925 12.1503 12.4965 11.9844 12.3274 11.8657C12.16 11.747 11.9421 11.6877 11.6738 11.6877C11.4852 11.6877 11.3234 11.7161 11.1885 11.773C11.0535 11.83 10.9503 11.9072 10.8787 12.0047C10.8072 12.1023 10.7706 12.2137 10.769 12.3389C10.769 12.4429 10.7926 12.5332 10.8397 12.6096C10.8885 12.686 10.9543 12.751 11.0373 12.8047C11.1202 12.8567 11.2121 12.9006 11.3129 12.9364C11.4137 12.9722 11.5153 13.0023 11.6177 13.0266L12.086 13.1437C12.2746 13.1876 12.4559 13.247 12.6299 13.3217C12.8055 13.3965 12.9624 13.4908 13.1006 13.6047C13.2404 13.7185 13.351 13.8559 13.4323 14.0168C13.5136 14.1778 13.5542 14.3664 13.5542 14.5827C13.5542 14.8753 13.4794 15.133 13.3298 15.3558C13.1802 15.5769 12.964 15.7501 12.6811 15.8753C12.3998 15.9988 12.0592 16.0606 11.6592 16.0606C11.2706 16.0606 10.9332 16.0005 10.647 15.8801C10.3625 15.7598 10.1398 15.5842 9.97878 15.3533C9.81944 15.1225 9.73327 14.8412 9.72026 14.5095H10.6105C10.6235 14.6835 10.6771 14.8282 10.7714 14.9436C10.8657 15.0591 10.9885 15.1452 11.1397 15.2021C11.2925 15.259 11.4633 15.2875 11.6519 15.2875C11.8486 15.2875 12.021 15.2582 12.1689 15.1997C12.3185 15.1395 12.4356 15.0566 12.5201 14.9509C12.6047 14.8436 12.6477 14.7184 12.6494 14.5753C12.6477 14.4453 12.6095 14.338 12.5347 14.2534C12.46 14.1672 12.3551 14.0957 12.2201 14.0388C12.0868 13.9802 11.9307 13.9282 11.7519 13.8827L11.1836 13.7364C10.7722 13.6307 10.4471 13.4705 10.208 13.2559C9.97065 13.0396 9.85196 12.7527 9.85196 12.395C9.85196 12.1007 9.93163 11.843 10.091 11.6218C10.2519 11.4007 10.4706 11.2292 10.747 11.1072C11.0234 10.9837 11.3364 10.9219 11.686 10.9219C12.0405 10.9219 12.351 10.9837 12.6177 11.1072C12.8859 11.2292 13.0965 11.3991 13.2493 11.617C13.4022 11.8332 13.481 12.082 13.4859 12.3633H12.6152Z" fill="black" fill-opacity="0.88"/>
<path d="M15.0291 10.9902L16.3291 14.9217H16.3803L17.6778 10.9902H18.6728L16.912 15.985H15.7949L14.0365 10.9902H15.0291Z" fill="black" fill-opacity="0.88"/>
</svg>
