<svg width="40" height="40" viewBox="0 0 40 40" fill="none" xmlns="http://www.w3.org/2000/svg">
<rect x="6" y="6" width="28" height="28" rx="4" fill="black" fill-opacity="0.04"/>
<rect x="6.5" y="6.5" width="27" height="27" rx="3.5" stroke="black" stroke-opacity="0.15"/>
<path d="M19.8893 22.6191C19.9024 22.6359 19.9192 22.6495 19.9384 22.6589C19.9576 22.6682 19.9787 22.6731 20 22.6731C20.0213 22.6731 20.0424 22.6682 20.0616 22.6589C20.0808 22.6495 20.0976 22.6359 20.1107 22.6191L22.0795 20.1283C22.1516 20.0369 22.0865 19.9016 21.9688 19.9016H20.6662V13.9531C20.6662 13.8758 20.6029 13.8125 20.5256 13.8125H19.4709C19.3936 13.8125 19.3303 13.8758 19.3303 13.9531V19.8998H18.0312C17.9135 19.8998 17.8484 20.0352 17.9205 20.1266L19.8893 22.6191ZM26.4336 22.0039H25.3789C25.3016 22.0039 25.2383 22.0672 25.2383 22.1445V24.8516H14.7617V22.1445C14.7617 22.0672 14.6984 22.0039 14.6211 22.0039H13.5664C13.4891 22.0039 13.4258 22.0672 13.4258 22.1445V25.625C13.4258 25.9361 13.6771 26.1875 13.9883 26.1875H26.0117C26.3229 26.1875 26.5742 25.9361 26.5742 25.625V22.1445C26.5742 22.0672 26.5109 22.0039 26.4336 22.0039Z" fill="black"/>
</svg>
