<svg width="87" height="86" viewBox="0 0 87 86" fill="none" xmlns="http://www.w3.org/2000/svg">
<circle cx="43.5" cy="43" r="42.5" fill="#E6F4FF" stroke="#BAE0FF"/>
<mask id="mask0_6542_61386" style="mask-type:alpha" maskUnits="userSpaceOnUse" x="1" y="1" width="85" height="84">
<circle cx="43.5" cy="43" r="41.5" fill="#E6F4FF" stroke="#BAE0FF"/>
</mask>
<g mask="url(#mask0_6542_61386)">
<rect x="17" y="23.5" width="52" height="65" rx="3.5" fill="white" stroke="#BAE0FF"/>
<rect x="24.5" y="29" width="24" height="4" rx="2" fill="#E6F4FF"/>
<rect x="24.5" y="75" width="23" height="6" rx="3" fill="#E6F4FF"/>
<rect x="25" y="37.5" width="38" height="33" rx="3.5" fill="#E6F4FF" stroke="#4096FF" stroke-dasharray="4 4"/>
</g>
<path d="M43.6856 53.4483C43.6637 53.4203 43.6357 53.3976 43.6037 53.382C43.5717 53.3664 43.5366 53.3583 43.501 53.3583C43.4655 53.3583 43.4304 53.3664 43.3984 53.382C43.3664 53.3976 43.3384 53.4203 43.3165 53.4483L40.0352 57.5997C40.0082 57.6342 39.9914 57.6757 39.9868 57.7193C39.9822 57.7629 39.99 57.807 40.0092 57.8464C40.0285 57.8858 40.0584 57.919 40.0957 57.9422C40.1329 57.9654 40.1759 57.9777 40.2198 57.9776H42.3848V65.0792C42.3848 65.2081 42.4903 65.3135 42.6192 65.3135H44.377C44.5059 65.3135 44.6114 65.2081 44.6114 65.0792V57.9805H46.7823C46.9786 57.9805 47.087 57.7549 46.9668 57.6026L43.6856 53.4483Z" fill="#4096FF"/>
<path d="M52.2715 50.7432C50.9297 47.2041 47.5107 44.6875 43.5059 44.6875C39.501 44.6875 36.082 47.2012 34.7402 50.7402C32.2295 51.3994 30.375 53.6875 30.375 56.4062C30.375 59.6436 32.9971 62.2656 36.2314 62.2656H37.4062C37.5352 62.2656 37.6406 62.1602 37.6406 62.0312V60.2734C37.6406 60.1445 37.5352 60.0391 37.4062 60.0391H36.2314C35.2441 60.0391 34.3154 59.6465 33.624 58.9346C32.9355 58.2256 32.5693 57.2705 32.6016 56.2803C32.6279 55.5068 32.8916 54.7803 33.3691 54.168C33.8584 53.5439 34.5439 53.0898 35.3057 52.8877L36.416 52.5977L36.8232 51.5254C37.0752 50.8574 37.4268 50.2334 37.8691 49.668C38.3059 49.1075 38.8232 48.6149 39.4043 48.2061C40.6084 47.3594 42.0264 46.9111 43.5059 46.9111C44.9854 46.9111 46.4033 47.3594 47.6074 48.2061C48.1904 48.6162 48.7061 49.1084 49.1426 49.668C49.585 50.2334 49.9365 50.8604 50.1885 51.5254L50.5928 52.5947L51.7002 52.8877C53.2881 53.3154 54.3984 54.7598 54.3984 56.4062C54.3984 57.376 54.0205 58.29 53.335 58.9756C52.9988 59.3138 52.5988 59.5819 52.1583 59.7644C51.7178 59.947 51.2454 60.0403 50.7686 60.0391H49.5938C49.4648 60.0391 49.3594 60.1445 49.3594 60.2734V62.0312C49.3594 62.1602 49.4648 62.2656 49.5938 62.2656H50.7686C54.0029 62.2656 56.625 59.6436 56.625 56.4062C56.625 53.6904 54.7764 51.4053 52.2715 50.7432Z" fill="#4096FF"/>
</svg>
