<svg width="78" height="78" viewBox="0 0 78 78" fill="none" xmlns="http://www.w3.org/2000/svg">
<path fill-rule="evenodd" clip-rule="evenodd" d="M41.1118 18.2992C41.1118 17.1394 40.1716 16.1992 39.0118 16.1992C37.852 16.1992 36.9118 17.1394 36.9118 18.2992V39.2992C36.9118 40.459 37.852 41.3992 39.0118 41.3992C40.1716 41.3992 41.1118 40.459 41.1118 39.2992V18.2992ZM27.1187 29.5296C27.9386 28.7093 27.9384 27.3797 27.1182 26.5597C26.298 25.7398 24.9683 25.74 24.1483 26.5602C21.2121 29.4974 19.2128 33.2392 18.403 37.3126C17.5933 41.3861 18.0096 45.6081 19.5992 49.445C21.1888 53.2818 23.8805 56.5611 27.3337 58.8683C30.787 61.1756 34.8469 62.407 39 62.407C43.1531 62.407 47.213 61.1756 50.6663 58.8683C54.1195 56.5611 56.8112 53.2818 58.4008 49.445C59.9904 45.6081 60.4067 41.3861 59.597 37.3126C58.7873 33.2392 56.7879 29.4974 53.8517 26.5602C53.0317 25.74 51.702 25.7398 50.8818 26.5597C50.0616 27.3797 50.0614 28.7093 50.8813 29.5296C53.2303 31.8793 54.8298 34.8728 55.4776 38.1315C56.1254 41.3902 55.7924 44.7679 54.5206 47.8374C53.2489 50.9068 51.0956 53.5303 48.333 55.3761C45.5704 57.2218 42.3225 58.207 39 58.207C35.6775 58.207 32.4296 57.2218 29.667 55.3761C26.9044 53.5303 24.7511 50.9068 23.4794 47.8374C22.2076 44.7679 21.8746 41.3902 22.5224 38.1315C23.1702 34.8728 24.7697 31.8793 27.1187 29.5296Z" fill="#0958D9"/>
</svg>
