<svg width="79" height="78" viewBox="0 0 79 78" fill="none" xmlns="http://www.w3.org/2000/svg">
<path d="M39.5 12.75C25.0039 12.75 13.25 24.5039 13.25 39C13.25 53.4961 25.0039 65.25 39.5 65.25C53.9961 65.25 65.75 53.4961 65.75 39C65.75 24.5039 53.9961 12.75 39.5 12.75ZM39.5 60.7969C27.4648 60.7969 17.7031 51.0352 17.7031 39C17.7031 26.9648 27.4648 17.2031 39.5 17.2031C51.5352 17.2031 61.2969 26.9648 61.2969 39C61.2969 51.0352 51.5352 60.7969 39.5 60.7969Z" fill="#FAAD14"/>
<path d="M36.6875 49.3125C36.6875 50.0584 36.9838 50.7738 37.5113 51.3012C38.0387 51.8287 38.7541 52.125 39.5 52.125C40.2459 52.125 40.9613 51.8287 41.4887 51.3012C42.0162 50.7738 42.3125 50.0584 42.3125 49.3125C42.3125 48.5666 42.0162 47.8512 41.4887 47.3238C40.9613 46.7963 40.2459 46.5 39.5 46.5C38.7541 46.5 38.0387 46.7963 37.5113 47.3238C36.9838 47.8512 36.6875 48.5666 36.6875 49.3125ZM38.0938 42.75H40.9062C41.1641 42.75 41.375 42.5391 41.375 42.2812V26.3438C41.375 26.0859 41.1641 25.875 40.9062 25.875H38.0938C37.8359 25.875 37.625 26.0859 37.625 26.3438V42.2812C37.625 42.5391 37.8359 42.75 38.0938 42.75Z" fill="#FAAD14"/>
</svg>
