<svg width="123" height="168" viewBox="0 0 123 168" fill="none" xmlns="http://www.w3.org/2000/svg">
<g id="g8">
<g id="g10">
<path id="path14" d="M119.283 84.3554C113.811 108.064 94.5078 132.32 61.4999 141.555C28.4918 132.32 9.18897 108.064 3.71653 84.3554C-1.6219 61.2321 0.0285296 36.8527 6.13447 13.9052C25.7053 16.8287 46.7129 11.5964 61.4999 -0.000747681C76.2868 11.5964 97.2941 16.8287 116.866 13.9052C122.971 36.8527 124.622 61.2321 119.283 84.3554Z" fill="#223262"/>
<path id="path16" d="M119.283 84.3554C113.81 108.064 94.5074 132.32 61.4995 141.555V-0.000747681C76.2864 11.5964 97.2937 16.8287 116.865 13.9052C122.971 36.8527 124.622 61.2321 119.283 84.3554Z" fill="#17223C"/>
<path id="path18" d="M112.61 82.8163C111.353 88.2607 109.316 93.6212 106.556 98.7519C103.662 104.131 100.024 109.152 95.7427 113.676C91.1953 118.481 85.9477 122.692 80.1459 126.192C74.4489 129.628 68.176 132.397 61.4997 134.422C54.8243 132.398 48.5508 129.628 42.8535 126.193C37.052 122.692 31.8044 118.481 27.2565 113.676C22.9752 109.152 19.3371 104.131 16.4435 98.7519C13.683 93.6221 11.6462 88.2607 10.3896 82.8163C7.956 72.2759 6.97626 61.0191 7.47658 49.3582C7.86743 40.2409 9.16791 30.821 11.3425 21.356C13.2126 21.4858 15.1049 21.5512 16.9712 21.5512C25.8146 21.5512 34.5447 20.158 42.9183 17.412C49.6667 15.1984 55.9173 12.1846 61.4997 8.45193C67.0821 12.1846 73.3325 15.1984 80.0813 17.412C88.4557 20.158 97.1851 21.5512 106.028 21.5512C107.895 21.5512 109.787 21.4858 111.657 21.356C113.831 30.821 115.132 40.2409 115.524 49.3582C116.023 61.0183 115.044 72.2751 112.61 82.8163Z" fill="#0958D9"/>
<path id="path20" opacity="0.7" d="M112.61 82.951C111.353 88.3955 109.316 93.756 106.556 98.8866C103.662 104.266 100.024 109.287 95.7425 113.811C91.1951 118.616 85.9475 122.827 80.1457 126.327C74.4487 129.763 68.1758 132.532 61.4995 134.557V8.5867C67.0819 12.3193 73.3322 15.3332 80.0811 17.5467C88.4555 20.2928 97.1848 21.686 106.028 21.686C107.895 21.686 109.786 21.6206 111.657 21.4907C113.831 30.9558 115.132 40.3757 115.524 49.493C116.023 61.1531 115.044 72.4098 112.61 82.951Z" fill="#1677FF"/>
<g id="Group 1000005962">
<path id="path22" d="M64.5766 84.8794L65.4196 90.0697C65.5519 90.8829 64.9242 91.6202 64.0998 91.6202H58.8998C58.0721 91.6202 57.4437 90.8756 57.5824 90.0592L58.4609 84.902C56.6112 83.8444 55.364 81.8535 55.364 79.5697C55.364 76.1807 58.11 73.4331 61.4998 73.4331C64.8896 73.4331 67.6356 76.1807 67.6356 79.5697C67.6356 81.8373 66.4054 83.817 64.5766 84.8794ZM79.0149 65.0111C74.5329 60.5274 68.3398 57.7556 61.4998 57.7556C54.6598 57.7556 48.4675 60.5274 43.9844 65.0111C39.5013 69.4931 36.729 75.6854 36.729 82.5262C36.729 96.2063 47.8198 107.297 61.4998 107.297C68.3398 107.297 74.5329 104.524 79.0149 100.041C83.4986 95.5593 86.2704 89.3663 86.2704 82.5262C86.2704 75.6854 83.4986 69.4931 79.0149 65.0111Z" fill="white"/>
<g id="Group 1000005961">
<path id="path24" d="M74.6921 48.7651C74.6921 50.2043 73.5256 51.3708 72.0865 51.3708C70.6481 51.3708 69.4816 50.2043 69.4816 48.7651C69.4816 44.3638 65.9007 40.7844 61.4993 40.7844C57.0979 40.7844 53.517 44.3638 53.517 48.7651V59.4806C51.6941 60.0291 49.9499 60.7616 48.3062 61.6562V48.7651C48.3062 41.4903 54.2245 35.5731 61.4993 35.5731C68.7742 35.5731 74.6921 41.4903 74.6921 48.7651Z" fill="white"/>
<path id="path24_2" d="M48.3064 48.7651C48.3064 50.2043 49.4729 51.3708 50.9121 51.3708C52.3504 51.3708 53.5169 50.2043 53.5169 48.7651C53.5169 44.3638 57.0979 40.7844 61.4992 40.7844C65.9006 40.7844 69.4816 44.3638 69.4816 48.7651V59.4806C71.3044 60.0291 73.0486 60.7616 74.6924 61.6562V48.7651C74.6924 41.4903 68.7741 35.5731 61.4992 35.5731C54.2244 35.5731 48.3064 41.4903 48.3064 48.7651Z" fill="white"/>
</g>
</g>
<path id="path26" d="M103.259 162.105C103.259 164.829 84.5626 167.035 61.5 167.035C38.4372 167.035 19.7412 164.829 19.7412 162.105C19.7412 159.382 38.4372 157.175 61.5 157.175C84.5626 157.175 103.259 159.382 103.259 162.105Z" fill="#C8CEDC"/>
</g>
</g>
</svg>
