<svg width="42" height="37" viewBox="0 0 42 37" fill="none" xmlns="http://www.w3.org/2000/svg">
<g id="Group 1000005930">
<g id="Group 1000005931">
<path id="Vector (Stroke)" fill-rule="evenodd" clip-rule="evenodd" d="M0.875 2.05153C0.875 1.33271 1.45771 0.75 2.17653 0.75H9.11802C9.73836 0.75 10.2725 1.18781 10.3942 1.79609L11.9215 9.42686H40.3547C40.7426 9.42686 41.1103 9.59987 41.3575 9.89873C41.6048 10.1976 41.7059 10.5912 41.6332 10.9722L38.8547 25.5417C38.6365 26.6403 38.0389 27.6271 37.1664 28.3294C36.2974 29.029 35.211 29.4019 34.0959 29.3836H17.2511C16.136 29.4019 15.0495 29.029 14.1805 28.3294C13.3085 27.6274 12.711 26.6412 12.4925 25.5433C12.4924 25.5427 12.4926 25.5438 12.4925 25.5433L9.591 11.0464C9.58088 11.0061 9.57263 10.9651 9.56637 10.9234L8.05117 3.35306H2.17653C1.45771 3.35306 0.875 2.77034 0.875 2.05153ZM12.4425 12.0299L15.0454 25.0346C15.1446 25.5339 15.4162 25.9825 15.8128 26.3017C16.2094 26.621 16.7056 26.7906 17.2146 26.7808L17.2396 26.7806H34.1074L34.1323 26.7808C34.6413 26.7906 35.1375 26.621 35.5341 26.3017C35.9296 25.9834 36.2008 25.5365 36.3007 25.0388C36.301 25.0374 36.3012 25.036 36.3015 25.0346L38.7815 12.0299H12.4425Z" fill="#0958D9"/>
<ellipse id="Ellipse 1185" cx="18.2288" cy="34.7942" rx="2.16922" ry="2.16921" fill="#0958D9"/>
<circle id="Ellipse 1186" cx="33.8469" cy="34.7942" r="2.16921" fill="#0958D9"/>
</g>
</g>
</svg>
