<svg width="16" height="16" viewBox="0 0 16 16" fill="none" xmlns="http://www.w3.org/2000/svg">
<g id="Icon / FlagFilled">
<path id="Vector" d="M13.75 4.76562H9.75V3C9.75 2.72344 9.52656 2.5 9.25 2.5H2.875V1.875C2.875 1.80625 2.81875 1.75 2.75 1.75H1.875C1.80625 1.75 1.75 1.80625 1.75 1.875V14.125C1.75 14.1938 1.80625 14.25 1.875 14.25H2.75C2.81875 14.25 2.875 14.1938 2.875 14.125V10H6.75V11.7656C6.75 12.0422 6.97344 12.2656 7.25 12.2656H13.75C14.0266 12.2656 14.25 12.0422 14.25 11.7656V5.26562C14.25 4.98906 14.0266 4.76562 13.75 4.76562Z" fill="#FAAD14"/>
</g>
</svg>
