<svg width="14" height="12" viewBox="0 0 14 12" fill="none" xmlns="http://www.w3.org/2000/svg">
<path fill-rule="evenodd" clip-rule="evenodd" d="M0 0.750081C0 0.427915 0.261167 0.166748 0.583333 0.166748H13.4167C13.7388 0.166748 14 0.427915 14 0.750081V3.66675C14 3.98891 13.7388 4.25008 13.4167 4.25008H12.8333V11.2501C12.8333 11.5722 12.5722 11.8334 12.25 11.8334H1.75C1.42783 11.8334 1.16667 11.5722 1.16667 11.2501V4.25008H0.583333C0.261167 4.25008 0 3.98891 0 3.66675V0.750081ZM11.6667 10.6667V4.25008H2.33333V10.6667H11.6667ZM12.8333 3.08341H12.25H1.75H1.16667V1.33341H12.8333V3.08341ZM5.83333 5.41675C5.51117 5.41675 5.25 5.67791 5.25 6.00008C5.25 6.32225 5.51117 6.58341 5.83333 6.58341H8.16667C8.48883 6.58341 8.75 6.32225 8.75 6.00008C8.75 5.67791 8.48883 5.41675 8.16667 5.41675H5.83333Z" fill="black"/>
</svg>
