<svg width="176" height="127" viewBox="0 0 176 127" fill="none" xmlns="http://www.w3.org/2000/svg">
<path d="M97.8787 38.7965C97.8787 24.968 109.089 13.7578 122.917 13.7578V13.7578C136.746 13.7578 147.956 24.968 147.956 38.7965V78.6673H97.8787V38.7965Z" fill="#D6D9DA"/>
<path d="M62.9761 13.7578H126.205V78.6673H62.9761V13.7578Z" fill="#D6D9DA"/>
<path d="M39.2019 38.7965C39.2019 24.968 50.4121 13.7578 64.2406 13.7578V13.7578C78.0691 13.7578 89.2793 24.968 89.2793 38.7965V78.6673H39.2019V38.7965Z" fill="#B7BDBE"/>
<path fill-rule="evenodd" clip-rule="evenodd" d="M64.3853 13.7578C83.2729 22.697 83.7069 30.933 83.7071 78.4418L80.7972 78.6669H89.2792V38.7961C89.2792 25.0159 78.1471 13.8357 64.3853 13.7578Z" fill="#A8B2B4"/>
<path d="M16.4395 85.2578H82.687C86.3278 85.2578 89.2794 82.3063 89.2794 78.6654V78.6654H16.4395V85.2578Z" fill="#D6D9DA"/>
<path d="M94.3376 78.668H101.925V123.8H94.3376V78.668Z" fill="#D6D9DA"/>
<path d="M98.8901 78.668H106.478V123.8H98.8901V78.668Z" fill="#C5C8C9"/>
<path d="M98.6372 84.5H94.3376V78.9219H106.225V86.782L98.6372 84.5Z" fill="#B7BDBE"/>
<path d="M136.181 42.0273C137.376 42.0273 138.345 42.9964 138.345 44.1918V44.1918L112.437 44.1918L112.437 42.0273L136.181 42.0273Z" fill="#EEEEEE"/>
<path fill-rule="evenodd" clip-rule="evenodd" d="M138.345 56.2391L133.811 49.8243L129.277 56.2393L129.277 44.1953L138.345 44.1953L138.345 56.2391Z" fill="#0958D9"/>
<path fill-rule="evenodd" clip-rule="evenodd" d="M108.119 48.5223C110.98 48.5223 113.3 46.1965 113.3 43.3275C113.3 40.4586 110.98 38.1328 108.119 38.1328C105.257 38.1328 102.937 40.4586 102.937 43.3275C102.937 46.1965 105.257 48.5223 108.119 48.5223ZM108.119 46.3595C109.788 46.3595 111.141 45.0028 111.141 43.3292C111.141 41.6557 109.788 40.299 108.119 40.299C106.449 40.299 105.096 41.6557 105.096 43.3292C105.096 45.0028 106.449 46.3595 108.119 46.3595Z" fill="#EEEEEE"/>
</svg>
