<svg width="14" height="14" viewBox="0 0 14 14" fill="none" xmlns="http://www.w3.org/2000/svg">
    <g clip-path="url(#clip0_1318_15303)">
        <path fill-rule="evenodd" clip-rule="evenodd"
            d="M5.18429 2.43603C5.0228 2.28422 5.0228 2.03512 5.18429 1.8833L7.06938 0.111161C7.22704 -0.0370536 7.48004 -0.0370536 7.6377 0.111161L9.52279 1.8833C9.68428 2.03512 9.68428 2.28422 9.52279 2.43604C9.36513 2.58425 9.11213 2.58425 8.95447 2.43604L7.75882 1.31202V4.58074H6.94826V1.31202L5.75261 2.43603C5.59495 2.58425 5.34195 2.58425 5.18429 2.43603ZM1.3395 3.18109H6.30319L6.30317 4.26651H1.88221V5.89465H12.7364V4.26651H8.60864V3.18109H13.2792C13.5789 3.18109 13.8219 3.42407 13.8219 3.7238V6.43736C13.8219 6.73709 13.5789 6.98007 13.2792 6.98007H12.7366V13.4926C12.7366 13.7924 12.4936 14.0353 12.1938 14.0353H2.42504C2.12531 14.0353 1.88233 13.7924 1.88233 13.4926V6.98007H1.3395C1.03977 6.98007 0.796791 6.73709 0.796791 6.43736V3.7238C0.796791 3.42407 1.03977 3.18109 1.3395 3.18109ZM2.96775 6.98007H11.6511V12.9499H2.96775V6.98007ZM6.22402 8.06552C5.92429 8.06552 5.68131 8.3085 5.68131 8.60823C5.68131 8.90797 5.92429 9.15095 6.22402 9.15095H8.39487C8.6946 9.15095 8.93758 8.90797 8.93758 8.60823C8.93758 8.3085 8.6946 8.06552 8.39487 8.06552H6.22402Z"
            fill="black" />
    </g>
    <defs>
        <clipPath id="clip0_1318_15303">
            <rect width="14" height="14" fill="white" />
        </clipPath>
    </defs>
</svg>
    