<svg width="49" height="48" viewBox="0 0 49 48" fill="none" xmlns="http://www.w3.org/2000/svg">
<g id="Icon/unarchive" clip-path="url(#clip0_1_178949)">
<path id="Union" fill-rule="evenodd" clip-rule="evenodd" d="M18.2743 8.35212C17.7206 7.8316 17.7206 6.97754 18.2743 6.45702L24.7375 0.381123C25.278 -0.127041 26.1454 -0.127041 26.686 0.381123L33.1492 6.45702C33.7029 6.97754 33.7029 7.8316 33.1492 8.35212C32.6086 8.86028 31.7412 8.86028 31.2006 8.35212L27.1013 4.49837V15.7054H24.3222V4.49837L20.2228 8.35212C19.6823 8.86028 18.8149 8.86028 18.2743 8.35212ZM5.09217 10.9066H22.1105L22.1105 14.628H6.9529V20.2102H44.1674V14.628H30.0149V10.9066H46.0281C47.0558 10.9066 47.8888 11.7397 47.8888 12.7673V22.0709C47.8888 23.0986 47.0558 23.9317 46.0281 23.9317H44.1678V46.2605C44.1678 47.2881 43.3347 48.1212 42.3071 48.1212H8.81402C7.78637 48.1212 6.9533 47.2881 6.9533 46.2605V23.9317H5.09217C4.06452 23.9317 3.23145 23.0986 3.23145 22.0709V12.7673C3.23145 11.7397 4.06452 10.9066 5.09217 10.9066ZM10.6747 23.9317H40.4463V44.3997H10.6747V23.9317ZM21.8391 27.6532C20.8114 27.6532 19.9784 28.4863 19.9784 29.5139C19.9784 30.5416 20.8114 31.3747 21.8391 31.3747H29.282C30.3096 31.3747 31.1427 30.5416 31.1427 29.5139C31.1427 28.4863 30.3096 27.6532 29.282 27.6532H21.8391Z" fill="#FAAD14"/>
</g>
<defs>
<clipPath id="clip0_1_178949">
<rect width="48" height="48" fill="white" transform="translate(0.5)"/>
</clipPath>
</defs>
</svg>
