<svg width="14" height="14" viewBox="0 0 14 14" fill="none" xmlns="http://www.w3.org/2000/svg">
<g id="Icon/unarchive" clip-path="url(#clip0_587_49883)">
<path id="Union" fill-rule="evenodd" clip-rule="evenodd" d="M5.18438 2.43603C5.02288 2.28422 5.02288 2.03512 5.18438 1.8833L7.06947 0.111161C7.22713 -0.0370536 7.48012 -0.0370536 7.63778 0.111161L9.52287 1.8833C9.68437 2.03512 9.68437 2.28422 9.52287 2.43604C9.36521 2.58425 9.11222 2.58425 8.95456 2.43604L7.7589 1.31202V4.58074H6.94835V1.31202L5.75269 2.43603C5.59503 2.58425 5.34204 2.58425 5.18438 2.43603ZM1.33959 3.18109H6.30328L6.30325 4.26651H1.8823V5.89465H12.7365V4.26651H8.60872V3.18109H13.2792C13.579 3.18109 13.8219 3.42407 13.8219 3.7238V6.43736C13.8219 6.73709 13.579 6.98007 13.2792 6.98007H12.7366V13.4926C12.7366 13.7924 12.4937 14.0353 12.1939 14.0353H2.42513C2.1254 14.0353 1.88242 13.7924 1.88242 13.4926V6.98007H1.33959C1.03986 6.98007 0.796875 6.73709 0.796875 6.43736V3.7238C0.796875 3.42407 1.03986 3.18109 1.33959 3.18109ZM2.96784 6.98007H11.6512V12.9499H2.96784V6.98007ZM6.22411 8.06552C5.92438 8.06552 5.6814 8.3085 5.6814 8.60823C5.6814 8.90797 5.92438 9.15095 6.22411 9.15095H8.39495C8.69468 9.15095 8.93766 8.90797 8.93766 8.60823C8.93766 8.3085 8.69468 8.06552 8.39495 8.06552H6.22411Z" fill="black"/>
</g>
<defs>
<clipPath id="clip0_587_49883">
<rect width="14" height="14" fill="white"/>
</clipPath>
</defs>
</svg>
