<svg width="100%" height="auto" viewBox="0 0 17 17" fill="black" xmlns="http://www.w3.org/2000/svg">
<path d="M15.6448 12.3682C15.6609 12.2409 15.6729 12.1136 15.6729 11.9783C15.6729 11.8431 15.6609 11.7158 15.6448 11.5885L16.4912 10.932C16.5674 10.8724 16.5875 10.7649 16.5393 10.6774L15.7371 9.30091C15.701 9.23726 15.6328 9.20146 15.5606 9.20146C15.5365 9.20146 15.5124 9.20543 15.4924 9.21339L14.4936 9.61122C14.285 9.45209 14.0604 9.32081 13.8157 9.22135L13.6632 8.16709C13.6512 8.07161 13.567 8 13.4667 8H11.8622C11.7619 8 11.6777 8.07161 11.6656 8.16709L11.5132 9.22135C11.2685 9.32081 11.0439 9.45607 10.8353 9.61122L9.83647 9.21339C9.81241 9.20543 9.78834 9.20146 9.76427 9.20146C9.69608 9.20146 9.62789 9.23726 9.59179 9.30091L8.78953 10.6774C8.73738 10.7649 8.76145 10.8724 8.83767 10.932L9.68405 11.5885C9.668 11.7158 9.65597 11.847 9.65597 11.9783C9.65597 12.1096 9.668 12.2409 9.68405 12.3682L8.83767 13.0246C8.76145 13.0843 8.74139 13.1917 8.78953 13.2792L9.59179 14.6557C9.62789 14.7194 9.69608 14.7552 9.76828 14.7552C9.79235 14.7552 9.81642 14.7512 9.83647 14.7433L10.8353 14.3454C11.0439 14.5046 11.2685 14.6359 11.5132 14.7353L11.6656 15.7896C11.6777 15.885 11.7619 15.9567 11.8622 15.9567H13.4667C13.567 15.9567 13.6512 15.885 13.6632 15.7896L13.8157 14.7353C14.0604 14.6359 14.285 14.5006 14.4936 14.3454L15.4924 14.7433C15.5164 14.7512 15.5405 14.7552 15.5646 14.7552C15.6328 14.7552 15.701 14.7194 15.7371 14.6557L16.5393 13.2792C16.5875 13.1917 16.5674 13.0843 16.4912 13.0246L15.6448 12.3682ZM14.8506 11.6879C14.8666 11.8112 14.8706 11.8948 14.8706 11.9783C14.8706 12.0619 14.8626 12.1494 14.8506 12.2687L14.7944 12.7183L15.1514 12.9968L15.5846 13.331L15.3038 13.8123L14.7944 13.6094L14.3772 13.4424L14.0162 13.7129C13.8437 13.8402 13.6793 13.9357 13.5148 14.0033L13.0896 14.1744L13.0254 14.6239L12.9452 15.161H12.3836L12.3074 14.6239L12.2432 14.1744L11.818 14.0033C11.6456 13.9317 11.4851 13.8402 11.3247 13.7208L10.9596 13.4424L10.5344 13.6134L10.025 13.8163L9.74421 13.3349L10.1774 13.0008L10.5344 12.7223L10.4783 12.2727C10.4662 12.1494 10.4582 12.0579 10.4582 11.9783C10.4582 11.8988 10.4662 11.8073 10.4783 11.6879L10.5344 11.2384L10.1774 10.9599L9.74421 10.6257L10.025 10.1443L10.5344 10.3472L10.9516 10.5143L11.3126 10.2438C11.4851 10.1165 11.6496 10.021 11.814 9.95336L12.2392 9.78229L12.3034 9.33274L12.3836 8.79567H12.9412L13.0174 9.33274L13.0816 9.78229L13.5068 9.95336C13.6793 10.025 13.8397 10.1165 14.0002 10.2358L14.3652 10.5143L14.7904 10.3432L15.2998 10.1403L15.5806 10.6217L15.1514 10.9599L14.7944 11.2384L14.8506 11.6879ZM12.6644 10.387C11.7779 10.387 11.0599 11.0991 11.0599 11.9783C11.0599 12.8575 11.7779 13.5697 12.6644 13.5697C13.5509 13.5697 14.2689 12.8575 14.2689 11.9783C14.2689 11.0991 13.5509 10.387 12.6644 10.387ZM12.6644 12.774C12.2232 12.774 11.8622 12.4159 11.8622 11.9783C11.8622 11.5407 12.2232 11.1827 12.6644 11.1827C13.1057 11.1827 13.4667 11.5407 13.4667 11.9783C13.4667 12.4159 13.1057 12.774 12.6644 12.774Z"/>
<path fill-rule="evenodd" clip-rule="evenodd" d="M11.5479 3.48728C11.5479 5.46064 9.97929 7.07247 8.04258 7.07247C6.10587 7.07247 4.5453 5.46818 4.5373 3.50234C4.52929 1.56664 6.11388 0 8.04258 0C9.97929 0 11.5479 1.54404 11.5479 3.48728ZM6.00183 3.50234C6.00183 4.76771 6.93818 5.75439 8.04258 5.75439C9.15499 5.75439 10.0833 4.75264 10.0833 3.48728C10.0833 2.25204 9.16299 1.31809 8.04258 1.31809C6.93017 1.31809 5.99383 2.26711 6.00183 3.50234ZM7.89279 14.0772H3.04875C1.66424 14.0772 1 13.6629 1 12.7741C1 10.7029 3.75301 7.94618 8.04258 7.94618C8.31747 7.94618 8.58601 7.9575 8.84789 7.97923C8.65075 8.34214 8.45574 8.7749 8.28654 9.26773C8.20607 9.26543 8.12474 9.26426 8.04258 9.26426C4.51329 9.26426 2.53656 11.4109 2.53656 12.5632C2.53656 12.6988 2.60859 12.7591 2.80066 12.7591H7.76647C7.77949 13.1837 7.81975 13.6238 7.89279 14.0772Z" />
</svg>
