<svg width="100%" height="auto" viewBox="0 1.15 17 17" fill="black" xmlns="http://www.w3.org/2000/svg">
<g id="Icon/Bridge Therapy">
<path id="Union" fill-rule="evenodd" clip-rule="evenodd" d="M16.095 8.1725C16.1028 8.11527 16.1028 8.05723 16.095 8C16.095 6.55025 14.9197 5.375 13.47 5.375H10.125C9.71079 5.375 9.375 5.03921 9.375 4.625C9.375 4.12772 9.17746 3.65081 8.82583 3.29917C8.47419 2.94754 7.99728 2.75 7.5 2.75H4.3125C2.7592 2.75 1.5 4.0092 1.5 5.5625V14.015C1.51229 15.1465 2.43092 16.0585 3.5625 16.0625H13.0575C13.9079 16.0587 14.6694 15.5351 14.9775 14.7425L16.545 9.8675C16.6536 9.26373 16.4887 8.64291 16.095 8.1725ZM2.625 5.5625C2.625 4.63052 3.38052 3.875 4.3125 3.875H7.5C7.91421 3.875 8.25 4.21079 8.25 4.625C8.25411 5.65883 9.09117 6.49589 10.125 6.5H13.5C14.1231 6.49992 14.6813 6.88502 14.9025 7.4675C14.7727 7.45621 14.6423 7.45621 14.5125 7.4675H5.3625C4.49838 7.46772 3.72601 8.00658 3.4275 8.8175L2.625 10.9025V5.5625ZM13.0575 14.9375C13.4375 14.937 13.779 14.7054 13.92 14.3525L15.48 9.59C15.5084 9.3373 15.4295 9.08426 15.2625 8.8925C15.0757 8.6742 14.7997 8.55276 14.5125 8.5625H5.3625C4.96806 8.56271 4.61524 8.80789 4.4775 9.1775L2.625 14.09C2.67485 14.5706 3.07928 14.9362 3.5625 14.9375H13.0575ZM7.5 11.675C7.5 11.4058 7.71826 11.1875 7.9875 11.1875H9.18722V9.9875C9.18722 9.71826 9.40548 9.5 9.67472 9.5C9.94396 9.5 10.1622 9.71826 10.1622 9.9875V11.1875H11.3625C11.6317 11.1875 11.85 11.4058 11.85 11.675C11.85 11.9442 11.6317 12.1625 11.3625 12.1625H10.1622V13.3625C10.1622 13.6317 9.94396 13.85 9.67472 13.85C9.40548 13.85 9.18722 13.6317 9.18722 13.3625V12.1625H7.9875C7.71826 12.1625 7.5 11.9442 7.5 11.675Z" />
</g>
</svg>
