<svg width="100%" height="auto" viewBox="0 0 17 17" fill="black" xmlns="http://www.w3.org/2000/svg">
<path fill-rule="evenodd" clip-rule="evenodd" d="M1.27061 2C0.983086 2 0.75 2.23309 0.75 2.52061C0.75 2.80814 0.983086 3.04122 1.27061 3.04122H3.62047L4.22655 6.06934C4.22905 6.08603 4.23235 6.10245 4.2364 6.11858L5.39701 11.9173C5.48439 12.3565 5.72339 12.751 6.07221 13.0318C6.4198 13.3116 6.85438 13.4607 7.30043 13.4535H14.0383C14.4844 13.4607 14.919 13.3116 15.2666 13.0318C15.6155 12.7508 15.8546 12.3561 15.9419 11.9167L16.5816 8.5625H15.5216L14.9206 11.7138L14.9203 11.7155C14.8803 11.9146 14.7718 12.0934 14.6136 12.2207C14.455 12.3484 14.2565 12.4162 14.0529 12.4123L14.0429 12.4122H7.29582L7.28585 12.4123C7.08224 12.4162 6.88375 12.3484 6.72512 12.2207C6.5665 12.093 6.45783 11.9136 6.41816 11.7138L5.37701 6.51197H5.38081L5.0625 5H5.07439L4.55769 2.41844C4.50899 2.17513 4.29534 2 4.04721 2H1.27061ZM7.69166 16.4854C8.17087 16.4854 8.55935 16.0969 8.55935 15.6177C8.55935 15.1385 8.17087 14.75 7.69166 14.75C7.21245 14.75 6.82397 15.1385 6.82397 15.6177C6.82397 16.0969 7.21245 16.4854 7.69166 16.4854ZM13.9389 16.4854C14.4181 16.4854 14.8065 16.0969 14.8065 15.6177C14.8065 15.1385 14.4181 14.75 13.9389 14.75C13.4596 14.75 13.0712 15.1385 13.0712 15.6177C13.0712 16.0969 13.4596 16.4854 13.9389 16.4854ZM11.1835 10.4247L14.1573 7.51085C14.3398 7.33205 14.3398 7.04214 14.1573 6.86333C13.9748 6.68452 13.679 6.68452 13.4965 6.86333L11.3203 8.99556V2.08824H10.3857V8.99556L8.20958 6.86333C8.02709 6.68452 7.73121 6.68452 7.54872 6.86333C7.36623 7.04214 7.36623 7.33205 7.54872 7.51085L10.5226 10.4247C10.7051 10.6035 11.001 10.6035 11.1835 10.4247Z" />
</svg>
