<svg width="100%" height="auto" viewBox="0 0 17 17" fill="black" xmlns="http://www.w3.org/2000/svg">
<g id="Group 1000005930">
<g id="Group 1000005931">
<path id="Vector (Stroke)" fill-rule="evenodd" clip-rule="evenodd" d="M0.75 0.520612C0.75 0.233086 0.983086 0 1.27061 0H4.04721C4.29534 0 4.50899 0.175126 4.55769 0.418438L5.16861 3.47074H16.5419C16.697 3.47074 16.8441 3.53995 16.943 3.65949C17.0419 3.77904 17.0823 3.93647 17.0533 4.08888L15.9419 9.91669C15.8546 10.3561 15.6155 10.7508 15.2666 11.0318C14.919 11.3116 14.4844 11.4607 14.0383 11.4535H7.30043C6.85438 11.4607 6.4198 11.3116 6.07221 11.0318C5.72339 10.751 5.48439 10.3565 5.39701 9.91731C5.39697 9.9171 5.39705 9.91751 5.39701 9.91731L4.2364 4.11858C4.23235 4.10245 4.22905 4.08603 4.22655 4.06934L3.62047 1.04122H1.27061C0.983086 1.04122 0.75 0.808137 0.75 0.520612ZM5.37701 4.51197L6.41816 9.71384C6.45783 9.91358 6.5665 10.093 6.72512 10.2207C6.88375 10.3484 7.08224 10.4162 7.28585 10.4123L7.29582 10.4122H14.0429L14.0529 10.4123C14.2565 10.4162 14.455 10.3484 14.6136 10.2207C14.7718 10.0934 14.8803 9.91459 14.9203 9.71552C14.9204 9.71496 14.9205 9.7144 14.9206 9.71384L15.9126 4.51197H5.37701Z" />
<circle id="Ellipse 1185" cx="7.6919" cy="13.6177" r="0.867686" />
<circle id="Ellipse 1186" cx="13.939" cy="13.6177" r="0.867686" />
</g>
</g>
</svg>
