<svg width="100%" height="auto" viewBox="0 0 17 17" fill="black" xmlns="http://www.w3.org/2000/svg">
<g id="Central Supply">
<mask id="mask0_843_15280" style="mask-type:alpha" maskUnits="userSpaceOnUse" x="0" y="0" width="18" height="19">
<rect id="Bounding box" y="0.5" width="18" height="18" fill="#D9D9D9"/>
</mask>
<g mask="url(#mask0_843_15280)">
<path id="pallet" d="M2.20703 16.0916V13.8418H15.7933V16.0916H14.0049V14.9668H9.89434V16.0916H8.10597V14.9668H3.99541V16.0916H2.20703ZM4.81028 12.3418C4.61816 12.3418 4.45716 12.2768 4.32728 12.1468C4.19741 12.0169 4.13247 11.8559 4.13247 11.6638V3.26961C4.13247 3.07761 4.19741 2.91661 4.32728 2.78661C4.45716 2.65673 4.61816 2.5918 4.81028 2.5918H13.19C13.3822 2.5918 13.5432 2.65673 13.673 2.78661C13.8029 2.91661 13.8678 3.07761 13.8678 3.26961V11.6062C13.8678 11.8146 13.7988 11.9893 13.6607 12.1303C13.5224 12.2713 13.3511 12.3418 13.1467 12.3418H4.81028ZM5.25728 11.2168H12.743V3.7168H5.25728V11.2168ZM6.75016 6.55817H11.2502V5.43317H6.75016V6.55817Z" />
</g>
</g>
</svg>
