<svg width="100%" height="auto" viewBox="0 0 17 17" fill="none" xmlns="http://www.w3.org/2000/svg">
<g id="vuesax/linear/firstline">
<g id="firstline">
<g id="Group 1000005936">
<g id="Group 1000005934">
<g id="Group 1000005933">
<path id="Vector" d="M10.125 3.125H15.375" stroke="black"  stroke-width="1.5" stroke-linecap="round" stroke-linejoin="round"/>
<path id="Vector_2" d="M10.125 6.875H15.375" stroke="black"  stroke-width="1.5" stroke-linecap="round" stroke-linejoin="round"/>
</g>
<path id="Vector_3" d="M6.75 6.0725V3.9275C6.75 3.0875 6.4125 2.75 5.565 2.75H3.4275C2.5875 2.75 2.25 3.0875 2.25 3.9275V6.065C2.25 6.9125 2.5875 7.25 3.4275 7.25H5.565C6.4125 7.25 6.75 6.9125 6.75 6.0725Z" stroke="black"  stroke-width="1.5" stroke-linecap="round" stroke-linejoin="round"/>
</g>
<g id="Group 1000005935">
<g id="Group 1000005932">
<path id="Vector_4" d="M10.125 11.375H15.375" stroke="black"  stroke-width="1.5" stroke-linecap="round" stroke-linejoin="round"/>
<path id="Vector_5" d="M10.125 15.125H15.375" stroke="black"  stroke-width="1.5" stroke-linecap="round" stroke-linejoin="round"/>
</g>
<path id="Vector_6" d="M6.75 14.3225V12.1775C6.75 11.3375 6.4125 11 5.565 11H3.4275C2.5875 11 2.25 11.3375 2.25 12.1775V14.315C2.25 15.1625 2.5875 15.5 3.4275 15.5H5.565C6.4125 15.5 6.75 15.1625 6.75 14.3225Z" stroke="black"  stroke-width="1.5" stroke-linecap="round" stroke-linejoin="round"/>
</g>
</g>
</g>
</g>
</svg>
