<svg width="100%" height="auto" viewBox="0 1.15 17 17" fill="black" xmlns="http://www.w3.org/2000/svg">
    <g id="Icon/clipboard">
        <path id="Union" fill-rule="evenodd" clip-rule="evenodd"
            d="M6.22101 2.32086C6.22089 2.32084 6.22123 2.31994 6.22236 2.31823C6.22169 2.32003 6.22112 2.32088 6.22101 2.32086ZM6.24967 2.29225C6.23642 2.30219 6.22897 2.30981 6.225 2.31468V3.23701L6.225 3.2375L6.225 3.23799V3.41032C6.22897 3.41519 6.23642 3.42281 6.24967 3.43275C6.2932 3.46539 6.37567 3.5 6.4875 3.5H10.9875C11.0993 3.5 11.1818 3.46539 11.2253 3.43275C11.2386 3.42281 11.246 3.41519 11.25 3.41032V3.2375V2.31468C11.246 2.30981 11.2386 2.30219 11.2253 2.29225C11.1818 2.25961 11.0993 2.225 10.9875 2.225H6.4875C6.37567 2.225 6.2932 2.25961 6.24967 2.29225ZM12.225 2.75V2.3C12.225 1.95682 12.0384 1.6833 11.8103 1.51225C11.5824 1.34131 11.2899 1.25 10.9875 1.25H6.4875C6.18511 1.25 5.89259 1.34131 5.66467 1.51225C5.4366 1.6833 5.25 1.95682 5.25 2.3V2.75H4.2375C3.71038 2.75 3.20485 2.9594 2.83213 3.33213C2.4594 3.70485 2.25 4.21038 2.25 4.7375V15.2375C2.25 15.7646 2.4594 16.2701 2.83213 16.6429C3.20485 17.0156 3.71038 17.225 4.2375 17.225H13.2375C13.7646 17.225 14.2701 17.0156 14.6429 16.6429C15.0156 16.2701 15.225 15.7646 15.225 15.2375V4.7375C15.225 4.21038 15.0156 3.70485 14.6429 3.33213C14.2701 2.9594 13.7646 2.75 13.2375 2.75H12.225ZM12.1749 3.725C12.1045 3.92895 11.9672 4.09509 11.8103 4.21275C11.5824 4.38369 11.2899 4.475 10.9875 4.475H6.4875C6.18511 4.475 5.89259 4.38369 5.66467 4.21275C5.50779 4.09509 5.37053 3.92895 5.30013 3.725H4.2375C3.96897 3.725 3.71143 3.83167 3.52155 4.02155C3.33167 4.21143 3.225 4.46897 3.225 4.7375V15.2375C3.225 15.506 3.33167 15.7636 3.52155 15.9534C3.71144 16.1433 3.96897 16.25 4.2375 16.25H13.2375C13.506 16.25 13.7636 16.1433 13.9534 15.9534C14.1433 15.7636 14.25 15.506 14.25 15.2375V4.7375C14.25 4.46897 14.1433 4.21143 13.9534 4.02155C13.7636 3.83167 13.506 3.725 13.2375 3.725H12.1749ZM6.22101 3.40414C6.22112 3.40412 6.22169 3.40497 6.22236 3.40677C6.22123 3.40506 6.22089 3.40416 6.22101 3.40414ZM11.254 3.40414C11.2541 3.40416 11.2538 3.40506 11.2526 3.40677C11.2533 3.40497 11.2539 3.40412 11.254 3.40414ZM11.254 2.32086C11.2539 2.32088 11.2533 2.32003 11.2526 2.31823C11.2538 2.31994 11.2541 2.32084 11.254 2.32086ZM6.6 9.425C6.6 9.13719 6.83331 8.90388 7.12112 8.90388H8.40372V7.62112C8.40372 7.33331 8.63704 7.1 8.92484 7.1C9.21265 7.1 9.44596 7.33331 9.44596 7.62112V8.90388H10.7289C11.0167 8.90388 11.25 9.13719 11.25 9.425C11.25 9.71281 11.0167 9.94612 10.7289 9.94612H9.44596V11.2289C9.44596 11.5167 9.21265 11.75 8.92484 11.75C8.63704 11.75 8.40372 11.5167 8.40372 11.2289V9.94612H7.12112C6.83331 9.94612 6.6 9.71281 6.6 9.425Z"
            />
    </g>
</svg>