<svg width="100%" height="auto" viewBox="0 0 17 17" fill="black" xmlns="http://www.w3.org/2000/svg">
<path d="M9.13597 16.9917C12.9543 16.9917 16.1157 13.8234 16.1157 10.0119C16.1157 6.19363 12.9474 3.03223 9.12913 3.03223C5.31765 3.03223 2.15625 6.19363 2.15625 10.0119C2.15625 13.8234 5.3245 16.9917 9.13597 16.9917ZM9.13597 15.8284C5.90614 15.8284 3.32638 13.2418 3.32638 10.0119C3.32638 6.78212 5.8993 4.19551 9.12913 4.19551C12.359 4.19551 14.9456 6.78212 14.9524 10.0119C14.9592 13.2418 12.3658 15.8284 9.13597 15.8284ZM5.55715 10.751H9.12913C9.396 10.751 9.60813 10.5457 9.60813 10.272V5.65989C9.60813 5.39301 9.396 5.18773 9.12913 5.18773C8.86226 5.18773 8.65697 5.39301 8.65697 5.65989V9.79982H5.55715C5.28344 9.79982 5.07815 10.0051 5.07815 10.272C5.07815 10.5457 5.28344 10.751 5.55715 10.751Z" />
</svg>
