<svg width="100%" height="auto" viewBox="0 0 17 17" fill="black" xmlns="http://www.w3.org/2000/svg">
<path d="M10.0723 7.40081C9.66628 7.40081 9.35163 7.71546 9.35163 8.10393C9.35163 8.49241 9.66628 8.80706 10.0723 8.80706C10.4432 8.80706 10.7579 8.49241 10.7579 8.10393C10.7579 7.71546 10.4432 7.40081 10.0723 7.40081ZM5.15046 7.40081C4.7444 7.40081 4.42975 7.71546 4.42975 8.10393C4.42975 8.49241 4.7444 8.80706 5.15046 8.80706C5.52136 8.80706 5.836 8.49241 5.836 8.10393C5.836 7.71546 5.52136 7.40081 5.15046 7.40081Z" />
<path d="M15.7153 6.06426C14.8698 4.90411 13.6886 4.12891 12.3931 3.77911V3.78086C12.0925 3.44688 11.7532 3.13926 11.3735 2.86504C8.49601 0.773247 4.45655 1.41133 2.35597 4.28887C0.663193 6.62676 0.735264 9.77149 2.46144 12.0057L2.4755 14.3365C2.4755 14.3928 2.48429 14.449 2.50187 14.5018C2.59503 14.7988 2.91144 14.9623 3.20675 14.8691L5.43214 14.1678C6.02101 14.377 6.62921 14.4965 7.2339 14.5299L7.22511 14.5369C8.79132 15.6777 10.8444 16.0205 12.7271 15.3982L14.9612 16.126C15.0175 16.1436 15.0755 16.1541 15.1353 16.1541C15.4464 16.1541 15.6978 15.9027 15.6978 15.5916V13.2361C17.2464 11.1338 17.2868 8.22813 15.7153 6.06426ZM5.67823 12.9197L5.46729 12.8318L3.72706 13.3768L3.70948 11.5486L3.56886 11.3904C2.08175 9.57637 1.98331 6.96251 3.3755 5.04473C5.07003 2.7209 8.31847 2.20762 10.6353 3.88458C12.9591 5.57383 13.4741 8.817 11.7954 11.1268C10.3874 13.0586 7.86671 13.7723 5.67823 12.9197ZM14.5552 12.6209L14.4146 12.7967L14.4321 14.6248L12.7095 14.0447L12.4985 14.1326C11.5142 14.4982 10.4648 14.5281 9.49269 14.2557L9.48917 14.2539C10.7882 13.8549 11.9659 13.0463 12.815 11.8826C14.1579 10.0316 14.3759 7.70606 13.5954 5.72325L13.606 5.73028C14.0103 6.02032 14.3812 6.38243 14.6958 6.82012C15.972 8.5709 15.8999 10.9545 14.5552 12.6209Z" />
<path d="M7.61139 7.40081C7.20534 7.40081 6.89069 7.71546 6.89069 8.10393C6.89069 8.49241 7.20534 8.80706 7.61139 8.80706C7.98229 8.80706 8.29694 8.49241 8.29694 8.10393C8.29694 7.71546 7.98229 7.40081 7.61139 7.40081Z" />
</svg>
