<svg xmlns="http://www.w3.org/2000/svg" width="18" height="19" viewBox="0 0 18 19" fill="none">
    <mask id="mask0_1333_4018" style="mask-type:alpha" maskUnits="userSpaceOnUse" x="0" y="0"
        width="18" height="19">
        <rect y="0.5" width="18" height="18" fill="#D9D9D9" />
    </mask>
    <g mask="url(#mask0_1333_4018)">
        <path
            d="M7.5 10.8125H10.3052V9.6875H7.5V10.8125ZM7.5 8.5625H13.1106V7.4375H7.5V8.5625ZM7.5 6.3125H13.1106V5.1875H7.5V6.3125ZM6.04331 13.625C5.66444 13.625 5.34375 13.4938 5.08125 13.2313C4.81875 12.9688 4.6875 12.6481 4.6875 12.2692V3.73081C4.6875 3.35194 4.81875 3.03125 5.08125 2.76875C5.34375 2.50625 5.66444 2.375 6.04331 2.375H14.5817C14.9606 2.375 15.2812 2.50625 15.5438 2.76875C15.8063 3.03125 15.9375 3.35194 15.9375 3.73081V12.2692C15.9375 12.6481 15.8063 12.9688 15.5438 13.2313C15.2812 13.4938 14.9606 13.625 14.5817 13.625H6.04331ZM6.04331 12.5H14.5817C14.6394 12.5 14.6923 12.4759 14.7403 12.4278C14.7884 12.3798 14.8125 12.3269 14.8125 12.2692V3.73081C14.8125 3.67306 14.7884 3.62019 14.7403 3.57219C14.6923 3.52406 14.6394 3.5 14.5817 3.5H6.04331C5.98556 3.5 5.93269 3.52406 5.88469 3.57219C5.83656 3.62019 5.8125 3.67306 5.8125 3.73081V12.2692C5.8125 12.3269 5.83656 12.3798 5.88469 12.4278C5.93269 12.4759 5.98556 12.5 6.04331 12.5ZM3.41831 16.25C3.03944 16.25 2.71875 16.1188 2.45625 15.8563C2.19375 15.5938 2.0625 15.2731 2.0625 14.8942V5.23081H3.1875V14.8942C3.1875 14.9519 3.21156 15.0048 3.25969 15.0528C3.30769 15.1009 3.36056 15.125 3.41831 15.125H13.0817V16.25H3.41831Z"
            fill="black" fill-opacity="0.88" />
    </g>
</svg>