<svg width="100%" height="auto" viewBox="0 0 17 17" fill="black" xmlns="http://www.w3.org/2000/svg">
<g id="vuesax/outline/3d-rotate">
<g id="3d-rotate">
<path id="Union" fill-rule="evenodd" clip-rule="evenodd" d="M7.79269 14.2775C8.13769 14.465 8.56518 14.5625 9.00018 14.5625C9.43518 14.5625 9.86267 14.465 10.2077 14.2775L12.6077 12.9425C13.3202 12.545 13.8827 11.585 13.8827 10.7675V8.22499C13.8827 7.39999 13.3277 6.44749 12.6077 6.04999L10.2077 4.71499C9.51767 4.33249 8.48269 4.33249 7.79269 4.71499L5.39268 6.04999C4.68018 6.44749 4.11768 7.40749 4.11768 8.22499V10.7675C4.11768 11.5925 4.67268 12.545 5.39268 12.9425L7.79269 14.2775ZM8.34018 5.70499C8.51268 5.60749 8.75268 5.56249 9.00018 5.56249C9.24768 5.56249 9.48769 5.60749 9.66019 5.70499L12.0602 7.03999C12.1371 7.08237 12.2124 7.14053 12.2833 7.20985L9.00009 9.10996L5.7186 7.2091C5.7891 7.14 5.86384 7.08206 5.94019 7.03999L8.34018 5.70499ZM5.24268 8.23013L8.4375 10.0747V13.3344C8.40311 13.3203 8.37054 13.3047 8.34018 13.2875L5.94019 11.9525C5.57269 11.75 5.24268 11.1875 5.24268 10.7675V8.23013ZM9.5625 13.3346C9.59702 13.3204 9.62972 13.3047 9.66019 13.2875L12.0602 11.9525C12.4277 11.75 12.7577 11.18 12.7577 10.7675V8.23232L9.5625 10.079V13.3346Z" />
<path id="Vector" d="M11.2501 17.5625C11.0476 17.5625 10.8602 17.45 10.7627 17.2775C10.6652 17.0975 10.6651 16.8875 10.7701 16.7075L11.5576 15.395C11.7151 15.1325 12.0601 15.0425 12.3301 15.2C12.6001 15.3575 12.6827 15.7025 12.5252 15.9725L12.3226 16.31C14.3926 15.8225 15.9452 13.9625 15.9452 11.7425C15.9452 11.435 16.2002 11.18 16.5077 11.18C16.8152 11.18 17.0702 11.435 17.0702 11.7425C17.0627 14.9525 14.4526 17.5625 11.2501 17.5625Z" />
<path id="Vector_2" d="M1.5 7.8125C1.1925 7.8125 0.9375 7.5575 0.9375 7.25C0.9375 4.0475 3.5475 1.4375 6.75 1.4375C6.9525 1.4375 7.14 1.55 7.2375 1.7225C7.335 1.9025 7.33501 2.1125 7.23001 2.2925L6.4425 3.605C6.285 3.8675 5.94 3.9575 5.67 3.8C5.4 3.6425 5.31749 3.2975 5.47499 3.0275L5.67751 2.69C3.60751 3.1775 2.05499 5.0375 2.05499 7.2575C2.06249 7.5575 1.8075 7.8125 1.5 7.8125Z" />
</g>
</g>
</svg>
