<svg width="100%" height="auto" viewBox="0 0 17 17" fill="black" xmlns="http://www.w3.org/2000/svg">
<g clip-path="url(#clip0_6003_39285)">
<path d="M14.25 2.75H13.5V1.25H12V2.75H6V1.25H4.5V2.75H3.75C2.925 2.75 2.25 3.425 2.25 4.25V14.75C2.25 15.575 2.925 16.25 3.75 16.25H14.25C15.075 16.25 15.75 15.575 15.75 14.75V4.25C15.75 3.425 15.075 2.75 14.25 2.75ZM14.25 14.75H3.75V7.25H14.25V14.75ZM3.75 5.75V4.25H14.25V5.75H3.75ZM7.92 13.595L12.3675 9.1475L11.5725 8.3525L7.92 12.005L6.3375 10.4225L5.5425 11.2175L7.92 13.595Z" />
</g>
<defs>
<clipPath id="clip0_6003_39285">
<rect width="17" height="17"  transform="translate(0 0.5)"/>
</clipPath>
</defs>
</svg>
