<svg width="100%" height="auto" viewBox="0 1 17 17" fill="black" xmlns="http://www.w3.org/2000/svg">
<g id="vuesax/outline/folder-open">
<g id="vuesax/outline/folder-open_2">
<g id="folder-open">
<path id="Union" fill-rule="evenodd" clip-rule="evenodd" d="M14.8127 7.75996V8.30196C14.5574 8.22675 14.29 8.18744 14.0177 8.18744H3.98271C3.70956 8.18744 3.44265 8.22561 3.18774 8.29995V5.20996C3.18774 2.97496 3.57774 2.58496 5.81274 2.58496H6.76524C7.43563 2.58496 7.51419 2.68853 7.83851 3.11608L7.84524 3.12496L8.81274 4.40746C9.13524 4.83496 9.42774 5.13496 10.2752 5.13496H12.1877C14.4227 5.13496 14.8127 5.52496 14.8127 7.75996ZM2.06274 5.20996V8.94231C1.96772 9.03087 1.8775 9.12682 1.79271 9.22994C1.32771 9.81494 1.11771 10.5424 1.18521 11.2699L1.48521 15.0274L1.48578 15.0332C1.59817 16.1647 1.73701 17.5624 4.28271 17.5624H13.7177C16.2643 17.5624 16.4023 16.1637 16.5148 15.0245L16.5152 15.0199L16.8152 11.2774C16.8827 10.5949 16.7027 9.91994 16.2977 9.36494L16.1702 9.19244C16.0995 9.10784 16.0244 9.02801 15.9452 8.95315V7.75996C15.9452 4.88746 15.0677 4.00996 12.1952 4.00996H10.2827C9.93024 4.00996 9.91524 3.99496 9.71274 3.72496L8.75274 2.44996C8.28774 1.83496 7.92774 1.45996 6.77274 1.45996H5.81274C2.94024 1.45996 2.06274 2.33746 2.06274 5.20996ZM3.98271 9.31244C3.48021 9.31244 3.00021 9.53744 2.68521 9.92744L2.63271 9.97994C2.39271 10.2874 2.26521 10.7224 2.31021 11.1724L2.61021 14.9299C2.71521 16.0249 2.76021 16.4374 4.28271 16.4374H13.7177C15.2459 16.4374 15.2851 16.0259 15.3898 14.9263L15.3902 14.9224L15.6902 11.1649C15.7352 10.7224 15.6077 10.2799 15.3152 9.93494L15.2402 9.84494C14.9027 9.49244 14.4752 9.31244 14.0102 9.31244H3.98271ZM7.07288 13.8124H10.9279C11.2429 13.8124 11.4904 13.5574 11.4904 13.2499C11.4904 12.9424 11.2354 12.6874 10.9279 12.6874H7.07288C6.76538 12.6874 6.51038 12.9424 6.51038 13.2499C6.51038 13.5574 6.76538 13.8124 7.07288 13.8124Z" />
</g>
</g>
</g>
</svg>
