<svg width="100%" height="auto" viewBox="0 0 17 17" fill="black" xmlns="http://www.w3.org/2000/svg">
<g id="Group 2">
<g id="Group">
<path id="Shape" fill-rule="evenodd" clip-rule="evenodd" d="M3.35714 0H12.6429C14.2208 0 15.5 1.27919 15.5 2.85714V12.1429C15.5 13.7208 14.2208 15 12.6429 15H3.35714C1.77919 15 0.5 13.7208 0.5 12.1429V2.85714C0.5 1.27919 1.77919 0 3.35714 0ZM12.6429 13.9286C13.6291 13.9286 14.4286 13.1291 14.4286 12.1429V2.85714C14.4286 1.87092 13.6291 1.07143 12.6429 1.07143H3.35714C2.37092 1.07143 1.57143 1.87092 1.57143 2.85714V12.1429C1.57143 13.1291 2.37092 13.9286 3.35714 13.9286H12.6429Z" />
<path id="Path" d="M11.9286 5.17856H9.78571C9.48984 5.17856 9.25 5.41841 9.25 5.71427C9.25 6.01014 9.48984 6.24999 9.78571 6.24999H10.45L7.90714 8.79284L6.47857 7.36427C6.09947 6.98649 5.48623 6.98649 5.10714 7.36427L3.24285 9.17142C3.03396 9.38057 3.03396 9.7194 3.24285 9.92856C3.34277 10.0297 3.47923 10.0864 3.62142 10.0857C3.76378 10.0872 3.90055 10.0304 4 9.92856L5.76428 8.16427L7.19285 9.59284C7.57439 9.97145 8.18989 9.97145 8.57142 9.59284L11.3643 6.79999V7.85713C11.3643 8.153 11.6041 8.39284 11.9 8.39284C12.1959 8.39284 12.4357 8.153 12.4357 7.85713V5.71427C12.4326 5.43063 12.2116 5.1972 11.9286 5.17856V5.17856Z" />
</g>
</g>
</svg>
