<svg width="100%" height="auto" viewBox="0 1 17 17" fill="black" xmlns="http://www.w3.org/2000/svg">
<g id="vuesax/outline/global">
<g id="global">
<path id="Union" fill-rule="evenodd" clip-rule="evenodd" d="M9 17.5625C4.5525 17.5625 0.9375 13.9475 0.9375 9.5C0.9375 5.0525 4.5525 1.4375 9 1.4375C13.4475 1.4375 17.0625 5.0525 17.0625 9.5C17.0625 13.9475 13.4475 17.5625 9 17.5625ZM9 2.5625C8.41826 2.5625 7.85301 2.63449 7.31268 2.77004C7.31065 2.82376 7.30073 2.87757 7.28249 2.93C6.97737 3.84698 6.73828 4.78397 6.56522 5.7324C8.18279 5.55324 9.8188 5.55335 11.4354 5.73275C11.2623 4.78203 11.023 3.8424 10.7174 2.9225C10.7007 2.87229 10.6915 2.82119 10.6892 2.7705C10.1483 2.63466 9.58239 2.5625 9 2.5625ZM11.6126 6.88791C9.87977 6.67101 8.1207 6.67069 6.38779 6.88693C6.17088 8.61953 6.17073 10.3783 6.38732 12.1121C8.12016 12.329 9.87922 12.3293 11.6121 12.1131C11.829 10.3805 11.8292 8.62171 11.6126 6.88791ZM5.23591 7.06336C5.05724 8.68111 5.05719 10.3175 5.23576 11.9352C4.28599 11.7621 3.34779 11.5229 2.43 11.2175C2.37757 11.1993 2.32376 11.1893 2.27004 11.1873C2.13449 10.647 2.0625 10.0817 2.0625 9.5C2.0625 8.91753 2.13468 8.35159 2.27055 7.81064C2.32089 7.80813 2.37192 7.79893 2.42252 7.78249C3.34277 7.47628 4.28354 7.23657 5.23591 7.06336ZM5.39686 5.8936C4.50148 6.04173 3.61466 6.24555 2.74293 6.50506C3.40768 5.12203 4.51778 3.9918 5.88609 3.30153C5.91808 3.30794 5.95113 3.31167 5.98499 3.3125C5.73651 4.16081 5.54047 5.02315 5.39686 5.8936ZM12.7684 7.06551C13.7167 7.23855 14.6536 7.47754 15.57 7.78249C15.6233 7.80247 15.6766 7.81061 15.7298 7.81219C15.8655 8.35267 15.9375 8.91809 15.9375 9.5C15.9375 10.0819 15.8655 10.6472 15.7299 11.1876C15.6787 11.1903 15.6275 11.2001 15.5775 11.2175C14.6579 11.5235 13.7179 11.7631 12.7662 11.9362C12.9463 10.3195 12.947 8.68331 12.7684 7.06551ZM15.2581 6.50729C14.3877 6.24743 13.5019 6.04328 12.6072 5.89483C12.4595 5.00057 12.2563 4.11484 11.9975 3.24415C13.4199 3.92857 14.5748 5.0842 15.2581 6.50729ZM5.98499 15.6875C5.73649 14.8391 5.54043 13.9767 5.39682 13.1062C4.52537 12.9623 3.66224 12.7655 2.8125 12.515C2.81166 12.5485 2.80783 12.5814 2.80124 12.6133C3.47159 13.9425 4.55704 15.028 5.88609 15.6985C5.91809 15.6921 5.95113 15.6883 5.98499 15.6875ZM9 13.4C8.18566 13.4 7.37246 13.3557 6.56437 13.2667C6.7375 14.2176 6.97688 15.1574 7.28249 16.0775C7.29987 16.1275 7.3097 16.1787 7.31234 16.2299C7.85277 16.3655 8.41814 16.4375 9 16.4375C9.5813 16.4375 10.1461 16.3656 10.6861 16.2303C10.6883 16.1769 10.6984 16.1229 10.7174 16.07C11.0226 15.1528 11.2618 14.2155 11.4349 13.2668C10.6267 13.3557 9.81393 13.4 9 13.4ZM11.99 15.7594C12.2505 14.8883 12.4551 14.0017 12.604 13.1063C13.4767 12.9624 14.3419 12.7655 15.195 12.515C15.1957 12.5451 15.1988 12.5745 15.2039 12.6031C14.5133 13.978 13.3789 15.0932 11.99 15.7594Z" />
</g>
</g>
</svg>
