<svg width="100%" height="auto" viewBox="0 0 17 17" fill="black" xmlns="http://www.w3.org/2000/svg">
<g clip-path="url(#clip0_6003_39294)">
<path d="M8.25 14H9.75V12.5H8.25V14ZM9 2C4.86 2 1.5 5.36 1.5 9.5C1.5 13.64 4.86 17 9 17C13.14 17 16.5 13.64 16.5 9.5C16.5 5.36 13.14 2 9 2ZM9 15.5C5.6925 15.5 3 12.8075 3 9.5C3 6.1925 5.6925 3.5 9 3.5C12.3075 3.5 15 6.1925 15 9.5C15 12.8075 12.3075 15.5 9 15.5ZM9 5C7.3425 5 6 6.3425 6 8H7.5C7.5 7.175 8.175 6.5 9 6.5C9.825 6.5 10.5 7.175 10.5 8C10.5 9.5 8.25 9.3125 8.25 11.75H9.75C9.75 10.0625 12 9.875 12 8C12 6.3425 10.6575 5 9 5Z" />
</g>
<defs>
<clipPath id="clip0_6003_39294">
<rect width="17" height="17"  transform="translate(0 0.5)"/>
</clipPath>
</defs>
</svg>
