<svg width="100%" height="auto" viewBox="0 1 17 17" fill="black" xmlns="http://www.w3.org/2000/svg">
<g id="vuesax/outline/hospital">
<g id="hospital">
<path id="Union" fill-rule="evenodd" clip-rule="evenodd" d="M1.5 17.5625H2.25H6.75H11.25H15.75H16.5C16.8075 17.5625 17.0625 17.3075 17.0625 17C17.0625 16.6925 16.8075 16.4375 16.5 16.4375H16.3125V5C16.3125 2.735 15.015 1.4375 12.75 1.4375H5.25C2.985 1.4375 1.6875 2.735 1.6875 5V16.4375H1.5C1.1925 16.4375 0.9375 16.6925 0.9375 17C0.9375 17.3075 1.1925 17.5625 1.5 17.5625ZM11.82 16.4375H15.1875V5C15.1875 3.335 14.415 2.5625 12.75 2.5625H5.25C3.585 2.5625 2.8125 3.335 2.8125 5V16.4375H6.1875V12.455C6.1875 11.7575 6.7575 11.1875 7.455 11.1875H10.5525C11.25 11.1875 11.82 11.7575 11.82 12.455V16.4375ZM7.305 16.4375H7.3125H10.6875V12.455C10.6875 12.38 10.6275 12.3125 10.545 12.3125H7.44749C7.37249 12.3125 7.305 12.3725 7.305 12.455V16.4375ZM9 9.3125C8.6925 9.3125 8.4375 9.0575 8.4375 8.75V7.4375H7.125C6.8175 7.4375 6.5625 7.1825 6.5625 6.875C6.5625 6.5675 6.8175 6.3125 7.125 6.3125H8.4375V5C8.4375 4.6925 8.6925 4.4375 9 4.4375C9.3075 4.4375 9.5625 4.6925 9.5625 5V6.3125H10.875C11.1825 6.3125 11.4375 6.5675 11.4375 6.875C11.4375 7.1825 11.1825 7.4375 10.875 7.4375H9.5625V8.75C9.5625 9.0575 9.3075 9.3125 9 9.3125Z" />
</g>
</g>
</svg>
