<svg width="100%" height="auto" viewBox="0 0 17 17" fill="black" xmlns="http://www.w3.org/2000/svg">
<g clip-path="url(#clip0_6003_39240)">
<path d="M8.20294 13.889L8.49828 14.2724L8.79576 13.8907C9.58948 12.8724 10.5294 11.5427 11.2728 10.1891C12.0084 8.84975 12.5838 7.43063 12.5838 6.25007C12.5838 3.97685 10.7583 2.12502 8.5 2.12502C6.24171 2.12502 4.41615 3.97685 4.41615 6.25007C4.41615 7.42043 5.00003 8.84412 5.73842 10.1865C6.48522 11.5441 7.42466 12.8789 8.20294 13.889ZM8.49999 15.4261C8.36545 15.267 8.18821 15.0537 7.98113 14.7957C7.49914 14.1952 6.85707 13.3547 6.21574 12.3936C5.5737 11.4314 4.93693 10.3552 4.46178 9.28277C3.98449 8.20556 3.68262 7.15941 3.68262 6.25007C3.68262 3.55072 5.84035 1.375 8.5 1.375C11.1596 1.375 13.3174 3.55072 13.3174 6.25007C13.3174 7.15941 13.0155 8.20556 12.5382 9.28277C12.0631 10.3552 11.4263 11.4314 10.7843 12.3936C10.1429 13.3547 9.50086 14.1952 9.01886 14.7957C8.81178 15.0537 8.63454 15.267 8.49999 15.4261Z"  stroke="black" stroke-width="0.75"/>
<path d="M8.50002 7.63579C9.37646 7.63579 10.087 6.92529 10.087 6.04885C10.087 5.17241 9.37646 4.46191 8.50002 4.46191C7.62358 4.46191 6.91309 5.17241 6.91309 6.04885C6.91309 6.92529 7.62358 7.63579 8.50002 7.63579Z" />
</g>
<defs>
<clipPath id="clip0_6003_39240">
<rect width="17" height="17" fill="white"/>
</clipPath>
</defs>
</svg>
