<svg width="100%" height="auto" viewBox="0 0 17 17" fill="black" xmlns="http://www.w3.org/2000/svg">
<g id="Icon / LogoutOutlined">
<path id="Vector" d="M15.7572 13.3661H14.5215C14.4371 13.3661 14.358 13.403 14.3053 13.468C14.1822 13.6174 14.0504 13.7616 13.9115 13.8987C13.3436 14.4672 12.6708 14.9203 11.9305 15.2329C11.1635 15.5568 10.3391 15.723 9.50645 15.7215C8.66445 15.7215 7.84883 15.5563 7.08242 15.2329C6.34208 14.9203 5.66933 14.4672 5.10137 13.8987C4.53239 13.3321 4.0787 12.6605 3.76543 11.9211C3.44024 11.1547 3.27676 10.3409 3.27676 9.49887C3.27676 8.65688 3.44199 7.84301 3.76543 7.0766C4.07832 6.33656 4.52832 5.67035 5.10137 5.09906C5.67441 4.52777 6.34063 4.07777 7.08242 3.76488C7.84883 3.44145 8.66445 3.27621 9.50645 3.27621C10.3484 3.27621 11.1641 3.43969 11.9305 3.76488C12.6723 4.07777 13.3385 4.52777 13.9115 5.09906C14.0504 5.23793 14.1805 5.38207 14.3053 5.52973C14.358 5.59477 14.4389 5.63168 14.5215 5.63168H15.7572C15.868 5.63168 15.9365 5.50863 15.875 5.41547C14.5268 3.32016 12.1678 1.93324 9.48711 1.94027C5.27539 1.95082 1.89863 5.36977 1.94082 9.57621C1.98301 13.7159 5.35449 17.0575 9.50645 17.0575C12.1801 17.0575 14.5285 15.6723 15.875 13.5823C15.9348 13.4891 15.868 13.3661 15.7572 13.3661ZM17.3199 9.38813L14.8256 7.41938C14.7324 7.34555 14.5971 7.41234 14.5971 7.53012V8.86605H9.07754C9.0002 8.86605 8.93692 8.92934 8.93692 9.00668V9.99105C8.93692 10.0684 9.0002 10.1317 9.07754 10.1317H14.5971V11.4676C14.5971 11.5854 14.7342 11.6522 14.8256 11.5784L17.3199 9.60961C17.3367 9.59646 17.3503 9.57965 17.3597 9.56046C17.369 9.54127 17.3739 9.52021 17.3739 9.49887C17.3739 9.47752 17.369 9.45646 17.3597 9.43727C17.3503 9.41809 17.3367 9.40128 17.3199 9.38813Z" />
</g>
</svg>
