<svg width="100%" height="auto" viewBox="0 0 17 17" fill="black" xmlns="http://www.w3.org/2000/svg">
<mask id="path-1-outside-1_6003_39246" maskUnits="userSpaceOnUse" x="0.532227" y="0.532227" width="16" height="6" fill="black">
<rect  x="0.532227" y="0.532227" width="16" height="6"/>
<path fill-rule="evenodd" clip-rule="evenodd" d="M2.45614 1.53223H14.698C15.2061 1.53223 15.6219 1.94799 15.6219 2.45614V4.88141C15.6219 5.38956 15.2061 5.80532 14.698 5.80532H2.45614C1.94799 5.80532 1.53223 5.38956 1.53223 4.88141V2.45614C1.53223 1.94799 1.94799 1.53223 2.45614 1.53223ZM14.8138 2.41794H2.41794V4.89711H14.8138V2.41794Z"/>
</mask>
<path fill-rule="evenodd" clip-rule="evenodd" d="M2.45614 1.53223H14.698C15.2061 1.53223 15.6219 1.94799 15.6219 2.45614V4.88141C15.6219 5.38956 15.2061 5.80532 14.698 5.80532H2.45614C1.94799 5.80532 1.53223 5.38956 1.53223 4.88141V2.45614C1.53223 1.94799 1.94799 1.53223 2.45614 1.53223ZM14.8138 2.41794H2.41794V4.89711H14.8138V2.41794Z" />
<path d="M2.41794 2.41794V2.38731H2.38731V2.41794H2.41794ZM14.8138 2.41794H14.8444V2.38731H14.8138V2.41794ZM2.41794 4.89711H2.38731V4.92774H2.41794V4.89711ZM14.8138 4.89711V4.92774H14.8444V4.89711H14.8138ZM14.698 1.5016H2.45614V1.56286H14.698V1.5016ZM15.6525 2.45614C15.6525 1.93107 15.2231 1.5016 14.698 1.5016V1.56286C15.1892 1.56286 15.5913 1.9649 15.5913 2.45614H15.6525ZM15.6525 4.88141V2.45614H15.5913V4.88141H15.6525ZM14.698 5.83596C15.2231 5.83596 15.6525 5.40648 15.6525 4.88141H15.5913C15.5913 5.37265 15.1892 5.77469 14.698 5.77469V5.83596ZM2.45614 5.83596H14.698V5.77469H2.45614V5.83596ZM1.5016 4.88141C1.5016 5.40648 1.93107 5.83596 2.45614 5.83596V5.77469C1.9649 5.77469 1.56286 5.37265 1.56286 4.88141H1.5016ZM1.5016 2.45614V4.88141H1.56286V2.45614H1.5016ZM2.45614 1.5016C1.93107 1.5016 1.5016 1.93107 1.5016 2.45614H1.56286C1.56286 1.9649 1.9649 1.56286 2.45614 1.56286V1.5016ZM2.41794 2.44857H14.8138V2.38731H2.41794V2.44857ZM2.44857 4.89711V2.41794H2.38731V4.89711H2.44857ZM14.8138 4.86648H2.41794V4.92774H14.8138V4.86648ZM14.7831 2.41794V4.89711H14.8444V2.41794H14.7831Z"  mask="url(#path-1-outside-1_6003_39246)"/>
<circle cx="3.63703" cy="3.61359" r="0.612613" />
<mask id="path-4-outside-2_6003_39246" maskUnits="userSpaceOnUse" x="0.532227" y="5.41797" width="16" height="6" fill="black">
<rect  x="0.532227" y="5.41797" width="16" height="6"/>
<path fill-rule="evenodd" clip-rule="evenodd" d="M2.45614 6.41797H14.698C15.2061 6.41797 15.6219 6.83373 15.6219 7.34188V9.76715C15.6219 10.2753 15.2061 10.6911 14.698 10.6911H2.45614C1.94799 10.6911 1.53223 10.2753 1.53223 9.76715V7.34188C1.53223 6.83373 1.94799 6.41797 2.45614 6.41797ZM14.8138 7.30368H2.41794V9.78285H14.8138V7.30368Z"/>
</mask>
<path fill-rule="evenodd" clip-rule="evenodd" d="M2.45614 6.41797H14.698C15.2061 6.41797 15.6219 6.83373 15.6219 7.34188V9.76715C15.6219 10.2753 15.2061 10.6911 14.698 10.6911H2.45614C1.94799 10.6911 1.53223 10.2753 1.53223 9.76715V7.34188C1.53223 6.83373 1.94799 6.41797 2.45614 6.41797ZM14.8138 7.30368H2.41794V9.78285H14.8138V7.30368Z" />
<path d="M2.41794 7.30368V7.27305H2.38731V7.30368H2.41794ZM14.8138 7.30368H14.8444V7.27305H14.8138V7.30368ZM2.41794 9.78285H2.38731V9.81348H2.41794V9.78285ZM14.8138 9.78285V9.81348H14.8444V9.78285H14.8138ZM14.698 6.38734H2.45614V6.4486H14.698V6.38734ZM15.6525 7.34188C15.6525 6.81681 15.2231 6.38734 14.698 6.38734V6.4486C15.1892 6.4486 15.5913 6.85065 15.5913 7.34188H15.6525ZM15.6525 9.76715V7.34188H15.5913V9.76715H15.6525ZM14.698 10.7217C15.2231 10.7217 15.6525 10.2922 15.6525 9.76715H15.5913C15.5913 10.2584 15.1892 10.6604 14.698 10.6604V10.7217ZM2.45614 10.7217H14.698V10.6604H2.45614V10.7217ZM1.5016 9.76715C1.5016 10.2922 1.93107 10.7217 2.45614 10.7217V10.6604C1.9649 10.6604 1.56286 10.2584 1.56286 9.76715H1.5016ZM1.5016 7.34188V9.76715H1.56286V7.34188H1.5016ZM2.45614 6.38734C1.93107 6.38734 1.5016 6.81681 1.5016 7.34188H1.56286C1.56286 6.85065 1.9649 6.4486 2.45614 6.4486V6.38734ZM2.41794 7.33432H14.8138V7.27305H2.41794V7.33432ZM2.44857 9.78285V7.30368H2.38731V9.78285H2.44857ZM14.8138 9.75222H2.41794V9.81348H14.8138V9.75222ZM14.7831 7.30368V9.78285H14.8444V7.30368H14.7831Z"  mask="url(#path-4-outside-2_6003_39246)"/>
<circle cx="3.63703" cy="8.49933" r="0.612613" />
<mask id="path-7-outside-3_6003_39246" maskUnits="userSpaceOnUse" x="0.532227" y="10.3027" width="16" height="6" fill="black">
<rect  x="0.532227" y="10.3027" width="16" height="6"/>
<path fill-rule="evenodd" clip-rule="evenodd" d="M2.45614 11.3027H14.698C15.2061 11.3027 15.6219 11.7185 15.6219 12.2266V14.6519C15.6219 15.1601 15.2061 15.5758 14.698 15.5758H2.45614C1.94799 15.5758 1.53223 15.1601 1.53223 14.6519V12.2266C1.53223 11.7185 1.94799 11.3027 2.45614 11.3027ZM14.8138 12.1885H2.41794V14.6676H14.8138V12.1885Z"/>
</mask>
<path fill-rule="evenodd" clip-rule="evenodd" d="M2.45614 11.3027H14.698C15.2061 11.3027 15.6219 11.7185 15.6219 12.2266V14.6519C15.6219 15.1601 15.2061 15.5758 14.698 15.5758H2.45614C1.94799 15.5758 1.53223 15.1601 1.53223 14.6519V12.2266C1.53223 11.7185 1.94799 11.3027 2.45614 11.3027ZM14.8138 12.1885H2.41794V14.6676H14.8138V12.1885Z" />
<path d="M2.41794 12.1885V12.1578H2.38731V12.1885H2.41794ZM14.8138 12.1885H14.8444V12.1578H14.8138V12.1885ZM2.41794 14.6676H2.38731V14.6982H2.41794V14.6676ZM14.8138 14.6676V14.6982H14.8444V14.6676H14.8138ZM14.698 11.2721H2.45614V11.3334H14.698V11.2721ZM15.6525 12.2266C15.6525 11.7016 15.2231 11.2721 14.698 11.2721V11.3334C15.1892 11.3334 15.5913 11.7354 15.5913 12.2266H15.6525ZM15.6525 14.6519V12.2266H15.5913V14.6519H15.6525ZM14.698 15.6065C15.2231 15.6065 15.6525 15.177 15.6525 14.6519H15.5913C15.5913 15.1432 15.1892 15.5452 14.698 15.5452V15.6065ZM2.45614 15.6065H14.698V15.5452H2.45614V15.6065ZM1.5016 14.6519C1.5016 15.177 1.93107 15.6065 2.45614 15.6065V15.5452C1.9649 15.5452 1.56286 15.1432 1.56286 14.6519H1.5016ZM1.5016 12.2266V14.6519H1.56286V12.2266H1.5016ZM2.45614 11.2721C1.93107 11.2721 1.5016 11.7016 1.5016 12.2266H1.56286C1.56286 11.7354 1.9649 11.3334 2.45614 11.3334V11.2721ZM2.41794 12.2191H14.8138V12.1578H2.41794V12.2191ZM2.44857 14.6676V12.1885H2.38731V14.6676H2.44857ZM14.8138 14.637H2.41794V14.6982H14.8138V14.637ZM14.7831 12.1885V14.6676H14.8444V12.1885H14.7831Z"  mask="url(#path-7-outside-3_6003_39246)"/>
<circle cx="3.63703" cy="13.3841" r="0.612613" />
</svg>
