<svg width="100%" height="auto" viewBox="0 0 17 17" fill="none" xmlns="http://www.w3.org/2000/svg">
<path d="M8.50359 8.52938C10.1742 8.52938 11.5272 7.13902 11.5272 5.43681C11.5272 3.76059 10.1742 2.42871 8.50359 2.42871C6.8399 2.42871 5.47305 3.78008 5.47996 5.44981C5.48686 7.14552 6.833 8.52938 8.50359 8.52938ZM8.50359 7.3924C7.55094 7.3924 6.74326 6.5413 6.74326 5.44981C6.73635 4.3843 7.54404 3.56568 8.50359 3.56568C9.47005 3.56568 10.2639 4.37131 10.2639 5.43681C10.2639 6.52831 9.46315 7.3924 8.50359 7.3924ZM4.19595 14.5716H12.8043C13.9986 14.5716 14.5716 14.2142 14.5716 13.4476C14.5716 11.6609 12.2037 9.28303 8.50359 9.28303C4.80344 9.28303 2.42871 11.6609 2.42871 13.4476C2.42871 14.2142 3.00168 14.5716 4.19595 14.5716ZM3.98195 13.4346C3.81627 13.4346 3.75414 13.3826 3.75414 13.2657C3.75414 12.2716 5.45925 10.42 8.50359 10.42C11.541 10.42 13.2461 12.2716 13.2461 13.2657C13.2461 13.3826 13.184 13.4346 13.0183 13.4346H3.98195Z" />
</svg>
