<svg width="100%" height="auto" viewBox="0 0 17 17" fill="black" xmlns="http://www.w3.org/2000/svg">
<g id="Group 1000005838">
<path id="Union" fill-rule="evenodd" clip-rule="evenodd" d="M6.11697 10.8119C4.80638 12.1527 3.07055 12.1456 1.73904 10.7976C0.421483 9.45668 0.421483 7.65933 1.73207 6.31839L6.92566 1.00478C8.23624 -0.336113 9.97905 -0.336113 11.3035 1.01191C12.6281 2.3528 12.6281 4.15017 11.3175 5.49106L6.11697 10.8119ZM2.60348 7.06019C1.73904 7.9446 1.71116 9.12857 2.54074 9.97737C3.37728 10.8332 4.52753 10.8047 5.39893 9.91315L7.52485 7.73808L4.73001 4.88449L2.60348 7.06019ZM5.5317 4.06427L8.32654 6.91786L10.4391 4.75643C11.3105 3.86487 11.3384 2.68803 10.5019 1.83214C9.67227 0.976249 8.51506 1.00478 7.65064 1.89633L5.5317 4.06427ZM17.2502 10.8689C17.2502 13.0229 15.5492 14.7632 13.4369 14.7632C11.3455 14.7632 9.63757 13.0157 9.63757 10.8689C9.63757 8.7363 11.3455 6.98886 13.4369 6.98886C15.5422 6.98886 17.2502 8.7363 17.2502 10.8689ZM10.8211 11.4537C11.083 12.6866 12.1551 13.6149 13.4369 13.6149C14.7324 13.6149 15.807 12.6952 16.0675 11.4537H10.8211ZM10.8205 10.2912C11.0821 9.0622 12.1596 8.13717 13.4369 8.13717C14.7263 8.13717 15.8055 9.0622 16.0672 10.2912H10.8205Z" />
</g>
</svg>
