<svg width="100%" height="auto" viewBox="-1.5 1 15 15" fill="black" xmlns="http://www.w3.org/2000/svg">
<g id="Group 1000005757">
<path id="Vector 116 (Stroke)" fill-rule="evenodd" clip-rule="evenodd" d="M6.3949 0.5L12.0782 2.96275L12.143 3.25728C12.5071 4.91174 12.5029 7.34893 11.7371 9.71612C10.9676 12.0949 9.41412 14.4426 6.65057 15.8242L6.39946 15.9498L6.14368 15.834C3.06473 14.4412 1.39876 12.0206 0.608165 9.59662C-0.176401 7.19114 -0.110582 4.75301 0.292736 3.23281L0.368206 2.94835L6.3949 0.5ZM1.36583 3.81644C1.08194 5.13878 1.06474 7.19185 1.72976 9.23081C2.41537 11.3329 3.81508 13.3923 6.37353 14.6388C8.63546 13.4166 9.94256 11.4306 10.6146 9.35302C11.2696 7.32835 11.3082 5.25166 11.0488 3.80245L6.38017 1.77936L1.36583 3.81644Z" />
<path id="Vector 117 (Stroke)" fill-rule="evenodd" clip-rule="evenodd" d="M8.94852 6.24549C9.17939 6.47534 9.18023 6.84882 8.95038 7.07969L5.85657 10.1873C5.63551 10.4094 5.27941 10.4198 5.04568 10.2111L3.30541 8.65734C3.0624 8.44037 3.0413 8.06748 3.25827 7.82447C3.47524 7.58146 3.84813 7.56035 4.09114 7.77732L5.41467 8.95905L8.11432 6.24735C8.34417 6.01648 8.71765 6.01565 8.94852 6.24549Z" fill="black" fill-opacity="0.45"/>
</g>
</svg>
