<svg width="100%" height="auto" viewBox="0 1.75 17 17" fill="black" xmlns="http://www.w3.org/2000/svg">
<g id="vuesax/outline/danger">
<g id="danger">
<path id="Union" fill-rule="evenodd" clip-rule="evenodd" d="M4.45498 17.12H13.545C15.0075 17.12 16.125 16.5875 16.695 15.635C17.265 14.6675 17.1825 13.4375 16.47 12.155L11.925 3.9725C11.175 2.6225 10.14 1.88 8.99998 1.88C7.85998 1.88 6.82498 2.6225 6.07498 3.9725L1.52998 12.1475C0.817482 13.43 0.742482 14.6675 1.30498 15.6275C1.87498 16.5875 2.99248 17.12 4.45498 17.12ZM7.05748 4.52C7.60498 3.545 8.29498 3.005 8.99998 3.005C9.70498 3.005 10.395 3.545 10.9425 4.52L15.495 12.7025C16.005 13.625 16.095 14.4575 15.735 15.065C15.375 15.6725 14.6025 16.0025 13.5525 16.0025H4.46248C3.41248 16.0025 2.63248 15.6725 2.27998 15.065C1.92748 14.4575 2.00998 13.6175 2.51998 12.7025L7.05748 4.52ZM9 11.5625C8.6925 11.5625 8.4375 11.3075 8.4375 11V7.25C8.4375 6.9425 8.6925 6.6875 9 6.6875C9.3075 6.6875 9.5625 6.9425 9.5625 7.25V11C9.5625 11.3075 9.3075 11.5625 9 11.5625ZM9 14C8.95501 14 8.90252 13.9925 8.85002 13.985L8.85 13.985C8.805 13.9775 8.76 13.9625 8.715 13.94C8.67 13.925 8.625 13.9025 8.58 13.8725L8.4675 13.7825C8.3325 13.64 8.25 13.445 8.25 13.25C8.25 13.055 8.3325 12.86 8.4675 12.7175L8.58 12.6275C8.625 12.5975 8.67 12.575 8.715 12.56C8.76 12.5375 8.805 12.5225 8.85 12.515C8.9475 12.4925 9.0525 12.4925 9.1425 12.515C9.195 12.5225 9.24 12.5375 9.285 12.56C9.33 12.575 9.375 12.5975 9.42 12.6275L9.5325 12.7175C9.6675 12.86 9.75 13.055 9.75 13.25C9.75 13.445 9.6675 13.64 9.5325 13.7825L9.42 13.8725C9.375 13.9025 9.33 13.925 9.285 13.94C9.24 13.9625 9.195 13.9775 9.1425 13.985C9.0975 13.9925 9.045 14 9 14Z" />
</g>
</g>
</svg>
