<svg width="18" height="19" viewBox="0 0 18 19" fill="none" xmlns="http://www.w3.org/2000/svg">
<g id="Icon / ClockCircleOutlined">
<g id="Vector">
<path d="M9 1.625C4.65117 1.625 1.125 5.15117 1.125 9.5C1.125 13.8488 4.65117 17.375 9 17.375C13.3488 17.375 16.875 13.8488 16.875 9.5C16.875 5.15117 13.3488 1.625 9 1.625ZM9 16.0391C5.38945 16.0391 2.46094 13.1105 2.46094 9.5C2.46094 5.88945 5.38945 2.96094 9 2.96094C12.6105 2.96094 15.5391 5.88945 15.5391 9.5C15.5391 13.1105 12.6105 16.0391 9 16.0391Z" fill="black" fill-opacity="0.45"/>
<path d="M12.0709 11.7254L9.56425 9.91307V5.5625C9.56425 5.48516 9.50097 5.42188 9.42363 5.42188H8.57812C8.50078 5.42188 8.4375 5.48516 8.4375 5.5625V10.4035C8.4375 10.4492 8.45859 10.4914 8.49551 10.5178L11.4029 12.6377C11.4662 12.6834 11.5541 12.6693 11.5998 12.6078L12.1025 11.9222C12.1482 11.8572 12.1342 11.7693 12.0709 11.7254Z" fill="black" fill-opacity="0.45"/>
<path d="M11.485 11.9188L11.4086 12.023L8.9375 10.2212V5.92188H9.06425V9.91307V10.1686L9.2713 10.3183L11.485 11.9188ZM1.625 9.5C1.625 5.42731 4.92731 2.125 9 2.125C13.0727 2.125 16.375 5.42731 16.375 9.5C16.375 13.5727 13.0727 16.875 9 16.875C4.92731 16.875 1.625 13.5727 1.625 9.5ZM1.96094 9.5C1.96094 13.3867 5.11331 16.5391 9 16.5391C12.8867 16.5391 16.0391 13.3867 16.0391 9.5C16.0391 5.61331 12.8867 2.46094 9 2.46094C5.11331 2.46094 1.96094 5.61331 1.96094 9.5Z" stroke="black" stroke-opacity="0.88"/>
</g>
</g>
</svg>
