<svg width="99" height="99" viewBox="0 0 99 99" fill="none" xmlns="http://www.w3.org/2000/svg">
<circle cx="49.5" cy="49.5" r="49" fill="#E6F4FF" stroke="#BAE0FF"/>
<mask id="mask0_7786_72334" style="mask-type:alpha" maskUnits="userSpaceOnUse" x="1" y="1" width="97" height="97">
<circle cx="49.5" cy="49.5" r="48" fill="#E6F4FF" stroke="#BAE0FF"/>
</mask>
<g mask="url(#mask0_7786_72334)">
<rect x="18.8214" y="26.9062" width="60.2024" height="75.2143" rx="3.5" fill="white" stroke="#BAE0FF"/>
<rect x="27.5596" y="33.332" width="27.7143" height="4.61905" rx="2.30952" fill="#E6F4FF"/>
<rect x="27.5596" y="86.4531" width="26.5595" height="6.92857" rx="3.46429" fill="#E6F4FF"/>
<rect x="28.0596" y="43.0703" width="44.0357" height="38.2619" rx="3.5" fill="#E6F4FF" stroke="#4096FF" stroke-dasharray="4 4"/>
</g>
<path fill-rule="evenodd" clip-rule="evenodd" d="M45.8459 67.7294C43.6598 69.966 40.7644 69.9541 38.5435 67.7055C36.3458 65.469 36.3458 62.471 38.5319 60.2343L47.1947 51.3713C49.3808 49.1347 52.2878 49.1347 54.497 51.3832C56.7063 53.6198 56.7063 56.6177 54.5203 58.8543L45.8459 67.7294ZM39.9854 61.4716C38.5435 62.9468 38.497 64.9217 39.8807 66.3375C41.2761 67.765 43.1947 67.7174 44.6482 66.2304L48.1942 62.6024L43.5324 57.8426L39.9854 61.4716ZM44.8696 56.4745L49.5314 61.2342L53.0552 57.629C54.5086 56.1419 54.5551 54.1789 53.1598 52.7513C51.7761 51.3237 49.8458 51.3713 48.404 52.8584L44.8696 56.4745ZM64.4159 67.8245C64.4159 71.4174 61.5787 74.3201 58.0555 74.3201C54.567 74.3201 51.7182 71.4054 51.7182 67.8245C51.7182 64.2674 54.567 61.3527 58.0555 61.3527C61.567 61.3527 64.4159 64.2674 64.4159 67.8245ZM53.6924 68.8C54.1291 70.8565 55.9173 72.4047 58.0555 72.4047C60.2162 72.4047 62.0087 70.8708 62.4433 68.8H53.6924ZM53.6914 66.8609C54.1276 64.811 55.9249 63.268 58.0555 63.268C60.2062 63.268 62.0061 64.811 62.4428 66.8609H53.6914Z" fill="#4096FF"/>
</svg>
