<?xml version="1.0" encoding="utf-8"?>
<svg width="35" height="18" viewBox="0 0 734.498 741.497" style="enable-background:new 0 0 3435.04 735.46;" xmlns="http://www.w3.org/2000/svg">
  <defs>
    <style type="text/css">
	.st0{fill:#E43D30;}
	.st1{fill:#00A5B5;}
</style>
  </defs>
  <circle class="st0" cx="366.96" cy="368.53" r="155.37" transform="matrix(0.9999999999999999, 0, 0, 0.9999999999999999, -2.842170943040401e-14, 0)"/>
  <circle class="st1" cx="273.81" cy="143.52" r="49.48" transform="matrix(0.9999999999999999, 0, 0, 0.9999999999999999, -2.842170943040401e-14, 0)"/>
  <circle class="st1" cx="460.15" cy="143.52" r="49.48" transform="matrix(0.9999999999999999, 0, 0, 0.9999999999999999, -2.842170943040401e-14, 0)"/>
  <circle class="st1" cx="507.73" cy="28.66" r="27.19" transform="matrix(0.9999999999999999, 0, 0, 0.9999999999999999, -2.842170943040401e-14, 0)"/>
  <circle class="st1" cx="226.27" cy="28.66" r="27.19" transform="matrix(0.9999999999999999, 0, 0, 0.9999999999999999, -2.842170943040401e-14, 0)"/>
  <circle class="st1" cx="273.81" cy="593.4" r="49.48" transform="matrix(0.9999999999999999, 0, 0, 0.9999999999999999, -2.842170943040401e-14, 0)"/>
  <circle class="st1" cx="460.15" cy="593.4" r="49.48" transform="matrix(0.9999999999999999, 0, 0, 0.9999999999999999, -2.842170943040401e-14, 0)"/>
  <circle class="st1" cx="507.73" cy="708.27" r="27.19" transform="matrix(0.9999999999999999, 0, 0, 0.9999999999999999, -2.842170943040401e-14, 0)"/>
  <circle class="st1" cx="226.27" cy="708.27" r="27.19" transform="matrix(0.9999999999999999, 0, 0, 0.9999999999999999, -2.842170943040401e-14, 0)"/>
  <ellipse transform="matrix(0.5514000058174133, -0.8343000411987305, 0.8343000411987305, 0.5514000058174133, 86.71980414867105, 448.2862920803768)" class="st1" cx="460.16" cy="143.51" rx="49.48" ry="49.48"/>
  <ellipse transform="matrix(0.5514000058174133, -0.8343000411987305, 0.8343000411987305, 0.5514000058174133, -372.2031000286802, 494.65079472438674)" class="st1" cx="273.81" cy="593.39" rx="49.48" ry="49.48"/>
  <ellipse transform="matrix(0.7865999341011046, -0.6175000667572021, 0.6175000667572021, 0.7865999341011046, -43.65210025984199, 424.266607884565)" class="st1" cx="591.94" cy="275.28" rx="49.48" ry="49.48"/>
  <ellipse transform="matrix(0.7865999341011046, -0.6175000667572021, 0.6175000667572021, 0.7865999341011046, -158.71350334157796, 464.03562092834136)" class="st1" cx="591.94" cy="461.62" rx="49.48" ry="49.48"/>
  <ellipse transform="matrix(0.7865999341011046, -0.6175000667572021, 0.6175000667572021, 0.7865999341011046, -163.5784020957112, 545.1171345877219)" class="st1" cx="706.8" cy="509.2" rx="27.19" ry="27.19"/>
  <ellipse transform="matrix(0.7865999341011046, -0.6175000667572021, 0.6175000667572021, 0.7865999341011046, 10.220899734212423, 485.0466991222902)" class="st1" cx="706.8" cy="227.74" rx="27.19" ry="27.19"/>
  <ellipse transform="matrix(0.7865999341011046, -0.6175000667572021, 0.6175000667572021, 0.7865999341011046, -139.6662008116573, 146.46940831049395)" class="st1" cx="142.06" cy="275.28" rx="49.48" ry="49.48"/>
  <ellipse transform="matrix(0.7865999341011046, -0.6175000667572021, 0.6175000667572021, 0.7865999341011046, -254.72771070491825, 186.23810091969514)" class="st1" cx="142.06" cy="461.62" rx="49.48" ry="49.48"/>
  <ellipse transform="matrix(0.7865999341011046, -0.6175000667572021, 0.6175000667572021, 0.7865999341011046, -308.62109834881267, 125.46510501898982)" class="st1" cx="27.19" cy="509.2" rx="27.19" ry="27.19"/>
  <ellipse transform="matrix(0.7865999341011046, -0.6175000667572021, 0.6175000667572021, 0.7865999341011046, -134.82200823459036, 65.39499761752779)" class="st1" cx="27.19" cy="227.74" rx="27.19" ry="27.19"/>
</svg>