<svg width="132" height="132" viewBox="0 0 134 134" fill="none" xmlns="http://www.w3.org/2000/svg">
<circle cx="67" cy="67" r="66.5" fill="#E6F4FF" stroke="#BAE0FF"/>
<mask id="mask0_7928_198529" style="mask-type:alpha" maskUnits="userSpaceOnUse" x="1" y="1" width="132" height="132">
<circle cx="67" cy="67" r="65.5" fill="#E6F4FF" stroke="#BAE0FF"/>
</mask>
<g mask="url(#mask0_7928_198529)">
<rect x="25.0723" y="36.0703" width="82.2857" height="102.714" rx="3.5" fill="white" stroke="#BAE0FF"/>
<rect x="37.1426" y="45" width="37.7143" height="6.28571" rx="3.14286" fill="#E6F4FF"/>
<rect x="37.1426" y="117.289" width="36.1429" height="9.42857" rx="4" fill="#E6F4FF"/>
<rect x="37.5" y="58.5" width="60.2857" height="52.4286" rx="3.5" fill="#E6F4FF" stroke="#4096FF" stroke-dasharray="4 4"/>
</g>
<path fill-rule="evenodd" clip-rule="evenodd" d="M68.5988 67L81.5731 72.6222L81.7211 73.2946C82.5523 77.0715 82.5426 82.6353 80.7945 88.0394C79.0378 93.4699 75.4914 98.8295 69.1825 101.983L68.6093 102.27L68.0253 102.006C60.9964 98.8262 57.1932 93.3002 55.3884 87.7666C53.5973 82.2751 53.7476 76.7091 54.6683 73.2387L54.8406 72.5893L68.5988 67ZM57.118 74.5711C56.47 77.5898 56.4307 82.2767 57.9488 86.9315C59.514 91.7303 62.7094 96.4317 68.55 99.2772C73.7138 96.4872 76.6978 91.9534 78.232 87.2104C79.7272 82.5884 79.8155 77.8475 79.2233 74.5391L68.5652 69.9206L57.118 74.5711Z" fill="#4096FF"/>
<path fill-rule="evenodd" clip-rule="evenodd" d="M74.4281 80.1189C74.9551 80.6436 74.957 81.4962 74.4323 82.0232L67.3695 89.1176C66.8648 89.6245 66.0519 89.6484 65.5183 89.172L61.5455 85.6248C60.9907 85.1295 60.9425 84.2782 61.4378 83.7235C61.9332 83.1687 62.7844 83.1205 63.3392 83.6159L66.3607 86.3136L72.5237 80.1231C73.0484 79.596 73.901 79.5941 74.4281 80.1189Z" fill="#4096FF"/>
</svg>
