<svg width="13" height="11" viewBox="0 0 13 11" fill="none" xmlns="http://www.w3.org/2000/svg">
<path id="check" d="M2.05049 4.64933H2.0503H1.10806C0.883593 4.64933 0.779546 4.90712 0.903729 5.07044L0.903778 5.07051L4.59591 9.92101L4.59595 9.92107C4.82876 10.2266 5.27858 10.2259 5.51228 9.92152L5.51267 9.921L12.0954 1.27083C12.0956 1.27064 12.0957 1.27045 12.0959 1.27026C12.2224 1.10614 12.1139 0.85 11.8919 0.85H10.9497C10.7699 0.85 10.6005 0.9355 10.4917 1.08003C10.4916 1.08016 10.4915 1.08029 10.4914 1.08043L5.05362 8.2238L2.50809 4.87914L2.38864 4.96987L2.50801 4.87902L2.50804 4.87907C2.45416 4.80815 2.38513 4.75035 2.30586 4.71039C2.22653 4.67041 2.1392 4.64944 2.05049 4.64933Z" fill="#0958D9" stroke="white" stroke-width="0.3"/>
</svg>
