<svg width="49" height="49" viewBox="0 0 49 49" fill="none" xmlns="http://www.w3.org/2000/svg">
    <rect width="49" height="49" rx="6" fill="#E6F4FF" />
    <path fill-rule="evenodd" clip-rule="evenodd"
        d="M18.1332 8.84372C18.133 8.84367 18.1337 8.84177 18.1361 8.83816C18.1347 8.84196 18.1335 8.84376 18.1332 8.84372ZM18.1937 8.78332C18.1658 8.80429 18.15 8.82038 18.1417 8.83066V10.7776L18.1417 10.7788L18.1417 10.7801V11.1437C18.15 11.154 18.1658 11.1701 18.1937 11.191C18.2856 11.26 18.4598 11.333 18.6958 11.333H28.1958C28.4319 11.333 28.606 11.26 28.6979 11.191C28.7259 11.1701 28.7416 11.154 28.75 11.1437V10.7788V8.83066C28.7416 8.82038 28.7259 8.80429 28.6979 8.78332C28.606 8.7144 28.4319 8.64134 28.1958 8.64134H18.6958C18.4598 8.64134 18.2856 8.7144 18.1937 8.78332ZM30.8083 9.74967V8.79967C30.8083 8.07519 30.4144 7.49776 29.9329 7.13665C29.4518 6.77578 28.8342 6.58301 28.1958 6.58301H18.6958C18.0575 6.58301 17.4399 6.77578 16.9587 7.13665C16.4773 7.49776 16.0833 8.07519 16.0833 8.79967V9.74967H13.9458C12.833 9.74967 11.7658 10.1917 10.9789 10.9786C10.1921 11.7655 9.75 12.8327 9.75 13.9455V36.1122C9.75 37.225 10.1921 38.2922 10.9789 39.0791C11.7658 39.8659 12.833 40.308 13.9458 40.308H32.9458C34.0586 40.308 35.1259 39.8659 35.9127 39.0791C36.6996 38.2922 37.1417 37.225 37.1417 36.1122V13.9455C37.1417 12.8327 36.6996 11.7655 35.9127 10.9786C35.1259 10.1917 34.0586 9.74967 32.9458 9.74967H30.8083ZM30.7025 11.808C30.5539 12.2386 30.2641 12.5893 29.9329 12.8377C29.4518 13.1986 28.8342 13.3913 28.1958 13.3913H18.6958C18.0575 13.3913 17.4399 13.1986 16.9587 12.8377C16.6276 12.5893 16.3378 12.2386 16.1892 11.808H13.9458C13.3789 11.808 12.8353 12.0332 12.4344 12.4341C12.0335 12.8349 11.8083 13.3786 11.8083 13.9455V36.1122C11.8083 36.6791 12.0335 37.2228 12.4344 37.6236C12.8353 38.0245 13.3789 38.2497 13.9458 38.2497H32.9458C33.5127 38.2497 34.0564 38.0245 34.4573 37.6236C34.8581 37.2228 35.0833 36.6791 35.0833 36.1122V13.9455C35.0833 13.3786 34.8581 12.8349 34.4573 12.4341C34.0564 12.0332 33.5127 11.808 32.9458 11.808H30.7025ZM18.1332 11.1306C18.1335 11.1306 18.1347 11.1324 18.1361 11.1362C18.1337 11.1326 18.133 11.1307 18.1332 11.1306ZM28.7584 11.1306C28.7587 11.1307 28.758 11.1326 28.7556 11.1362C28.757 11.1324 28.7582 11.1306 28.7584 11.1306ZM28.7584 8.84372C28.7582 8.84376 28.757 8.84196 28.7556 8.83816C28.758 8.84177 28.7587 8.84367 28.7584 8.84372ZM18.9333 23.8413C18.9333 23.2337 19.4259 22.7412 20.0335 22.7412H22.7412V20.0332C22.7412 19.4256 23.2337 18.933 23.8413 18.933C24.4489 18.933 24.9415 19.4256 24.9415 20.0332V22.7412H27.6499C28.2575 22.7412 28.75 23.2337 28.75 23.8413C28.75 24.4489 28.2575 24.9415 27.6499 24.9415H24.9415V27.6495C24.9415 28.2571 24.4489 28.7497 23.8413 28.7497C23.2337 28.7497 22.7412 28.2571 22.7412 27.6495V24.9415H20.0335C19.4259 24.9415 18.9333 24.4489 18.9333 23.8413Z"
        fill="#0958D9" />
</svg>
    