<svg width="81" height="80" viewBox="0 0 81 80" fill="none" xmlns="http://www.w3.org/2000/svg">
<rect x="0.5" width="80" height="80" rx="40" fill="#FFFBE6"/>
<path d="M41.5 14.75C27.0039 14.75 15.25 26.5039 15.25 41C15.25 55.4961 27.0039 67.25 41.5 67.25C55.9961 67.25 67.75 55.4961 67.75 41C67.75 26.5039 55.9961 14.75 41.5 14.75ZM41.5 62.7969C29.4648 62.7969 19.7031 53.0352 19.7031 41C19.7031 28.9648 29.4648 19.2031 41.5 19.2031C53.5352 19.2031 63.2969 28.9648 63.2969 41C63.2969 53.0352 53.5352 62.7969 41.5 62.7969Z" fill="#FAAD14"/>
<path d="M38.6875 51.3125C38.6875 52.0584 38.9838 52.7738 39.5113 53.3012C40.0387 53.8287 40.7541 54.125 41.5 54.125C42.2459 54.125 42.9613 53.8287 43.4887 53.3012C44.0162 52.7738 44.3125 52.0584 44.3125 51.3125C44.3125 50.5666 44.0162 49.8512 43.4887 49.3238C42.9613 48.7963 42.2459 48.5 41.5 48.5C40.7541 48.5 40.0387 48.7963 39.5113 49.3238C38.9838 49.8512 38.6875 50.5666 38.6875 51.3125ZM40.0938 44.75H42.9062C43.1641 44.75 43.375 44.5391 43.375 44.2812V28.3438C43.375 28.0859 43.1641 27.875 42.9062 27.875H40.0938C39.8359 27.875 39.625 28.0859 39.625 28.3438V44.2812C39.625 44.5391 39.8359 44.75 40.0938 44.75Z" fill="#FAAD14"/>
</svg>
