<?xml version="1.0" encoding="utf-8"?>
<svg viewBox="0 0 59 58" fill="none" xmlns="http://www.w3.org/2000/svg">
  <path d="M 19.17 8.343 L 18.678 8.343 C 18.949 8.343 19.17 8.121 19.17 7.85 L 19.17 8.343 L 37.876 8.343 L 37.876 7.85 C 37.876 8.121 38.096 8.343 38.368 8.343 L 37.876 8.343 L 37.876 12.773 L 42.305 12.773 L 42.305 7.85 C 42.305 5.679 40.539 3.912 38.368 3.912 L 18.678 3.912 C 16.506 3.912 14.741 5.679 14.741 7.85 L 14.741 12.773 L 19.17 12.773 L 19.17 8.343 Z M 50.181 12.773 L 6.865 12.773 C 5.776 12.773 4.896 13.653 4.896 14.742 L 4.896 16.711 C 4.896 16.981 5.118 17.203 5.388 17.203 L 9.104 17.203 L 10.624 49.382 C 10.723 51.48 12.458 53.135 14.555 53.135 L 42.49 53.135 C 44.594 53.135 46.323 51.487 46.421 49.382 L 47.941 17.203 L 51.658 17.203 C 51.928 17.203 52.15 16.981 52.15 16.711 L 52.15 14.742 C 52.15 13.653 51.27 12.773 50.181 12.773 Z M 42.016 48.705 L 15.029 48.705 L 13.541 17.203 L 43.505 17.203 L 42.016 48.705 Z" fill="#FF4D4F" style=""/>
  <path d="M 21.859 21.254 L 21.859 45.487" stroke="#FF4D4F" stroke-width="4" style=""/>
  <path d="M 33.975 21.254 L 33.975 45.487" stroke="#FF4D4F" stroke-width="4" style=""/>
</svg>