<svg width="33" height="32" viewBox="0 0 33 32" fill="none" xmlns="http://www.w3.org/2000/svg">
    <path
        d="M16.5 30C24.4728 30 30.9375 23.7313 30.9375 16C30.9375 8.26875 24.4729 2 16.5 2C8.52715 2 2.0625 8.26875 2.0625 16C2.06249 23.7312 8.52715 30 16.5 30ZM16.5 4.375C23.1193 4.375 28.4883 9.58125 28.4883 16C28.4883 22.4188 23.1193 27.625 16.5 27.625C9.88066 27.625 4.51172 22.4187 4.51172 16C4.51172 9.58125 9.88066 4.375 16.5 4.375Z"
        fill="#0958D9" />
    <path
        d="M18.0469 21.5C18.0469 21.1022 17.8839 20.7206 17.5938 20.4393C17.3037 20.158 16.9103 20 16.5 20C16.0897 20 15.6963 20.158 15.4062 20.4393C15.1161 20.7206 14.9531 21.1022 14.9531 21.5C14.9531 21.8978 15.1161 22.2794 15.4062 22.5607C15.6963 22.842 16.0897 23 16.5 23C16.9103 23 17.3037 22.842 17.5938 22.5607C17.8839 22.2794 18.0469 21.8978 18.0469 21.5ZM15.7266 18L17.2734 18C17.4152 18 17.5312 17.8875 17.5312 17.75L17.5312 9.25C17.5312 9.1125 17.4152 9 17.2734 9L15.7266 9C15.5848 9 15.4687 9.1125 15.4687 9.25L15.4687 17.75C15.4687 17.8875 15.5848 18 15.7266 18Z"
        fill="#0958D9" />
</svg>
    