<svg width="16" height="17" viewBox="0 0 16 17" fill="none" xmlns="http://www.w3.org/2000/svg">
<g clip-path="url(#clip0_913_69477)">
<path d="M8 2.92725C7.79492 2.92725 7.60579 3.0127 7.43262 3.18359L4.96826 5.70264C4.90446 5.76872 4.85661 5.83936 4.82471 5.91455C4.79508 5.98975 4.78027 6.07292 4.78027 6.16406C4.78027 6.28711 4.8099 6.3999 4.86914 6.50244C4.93066 6.60726 5.01156 6.68929 5.11182 6.74854C5.21436 6.81006 5.32601 6.84082 5.44678 6.84082C5.63363 6.84082 5.79997 6.76676 5.9458 6.61865L8.11963 4.36963H7.88721L10.0542 6.61865C10.1955 6.76676 10.3595 6.84082 10.5464 6.84082C10.6694 6.84082 10.7811 6.81006 10.8813 6.74854C10.9839 6.68929 11.0648 6.60726 11.124 6.50244C11.1855 6.3999 11.2163 6.28711 11.2163 6.16406C11.2163 5.98177 11.1525 5.82796 11.0249 5.70264L8.56396 3.18359C8.4751 3.09473 8.38509 3.02979 8.29395 2.98877C8.20508 2.94775 8.1071 2.92725 8 2.92725Z" fill="black" fill-opacity="0.85"/>
<path d="M8 14.0728C7.79492 14.0728 7.60579 13.9873 7.43262 13.8164L4.96826 11.2974C4.90446 11.2313 4.85661 11.1606 4.82471 11.0854C4.79508 11.0103 4.78027 10.9271 4.78027 10.8359C4.78027 10.7129 4.8099 10.6001 4.86914 10.4976C4.93066 10.3927 5.01156 10.3107 5.11182 10.2515C5.21436 10.1899 5.32601 10.1592 5.44678 10.1592C5.63363 10.1592 5.79997 10.2332 5.9458 10.3813L8.11963 12.6304H7.88721L10.0542 10.3813C10.1955 10.2332 10.3595 10.1592 10.5464 10.1592C10.6694 10.1592 10.7811 10.1899 10.8813 10.2515C10.9839 10.3107 11.0648 10.3927 11.124 10.4976C11.1855 10.6001 11.2163 10.7129 11.2163 10.8359C11.2163 11.0182 11.1525 11.172 11.0249 11.2974L8.56396 13.8164C8.4751 13.9053 8.38509 13.9702 8.29395 14.0112C8.20508 14.0522 8.1071 14.0728 8 14.0728Z" fill="black" fill-opacity="0.85"/>
</g>
<defs>
<clipPath id="clip0_913_69477">
<path d="M0 6.9C0 4.65979 0 3.53969 0.435974 2.68404C0.819467 1.93139 1.43139 1.31947 2.18404 0.935974C3.03969 0.5 4.15979 0.5 6.4 0.5H9.6C11.8402 0.5 12.9603 0.5 13.816 0.935974C14.5686 1.31947 15.1805 1.93139 15.564 2.68404C16 3.53969 16 4.65979 16 6.9V10.1C16 12.3402 16 13.4603 15.564 14.316C15.1805 15.0686 14.5686 15.6805 13.816 16.064C12.9603 16.5 11.8402 16.5 9.6 16.5H6.4C4.15979 16.5 3.03969 16.5 2.18404 16.064C1.43139 15.6805 0.819467 15.0686 0.435974 14.316C0 13.4603 0 12.3402 0 10.1V6.9Z" fill="white"/>
</clipPath>
</defs>
</svg>
