<svg width="473" height="473" viewBox="0 0 473 473" fill="none" xmlns="http://www.w3.org/2000/svg">
<mask id="mask0_943_72413" style="mask-type:alpha" maskUnits="userSpaceOnUse" x="0" y="0" width="473" height="473">
<circle cx="236.5" cy="236.5" r="236.5" fill="#FFB6C8"/>
</mask>
<g mask="url(#mask0_943_72413)">
<circle cx="236.5" cy="236.5" r="236.5" fill="#0958D9"/>
<path fill-rule="evenodd" clip-rule="evenodd" d="M222.464 90.8484C222.453 90.6262 222.448 90.4026 222.448 90.1777V40.202C222.448 32.6745 228.55 26.5723 236.078 26.5723C243.605 26.5723 249.707 32.6745 249.707 40.202V90.1778C249.707 90.3386 249.705 90.4987 249.699 90.6581C332.311 97.0296 397.361 166.082 397.361 250.328C397.361 314.756 359.315 370.298 304.465 395.714C359.315 421.13 397.361 476.672 397.361 541.1C397.361 629.548 325.659 701.25 237.211 701.25C148.763 701.25 77.0618 629.548 77.0618 541.1C77.0618 476.672 115.107 421.13 169.958 395.714C115.107 370.298 77.0618 314.756 77.0618 250.328C77.0618 166.852 140.929 98.2924 222.464 90.8484Z" fill="#A6CFFF"/>
<path fill-rule="evenodd" clip-rule="evenodd" d="M195.329 287.814C202.229 287.814 207.822 293.408 207.822 300.308C207.822 315.67 220.719 328.704 237.354 328.704C253.988 328.704 266.885 315.67 266.885 300.308C266.885 293.408 272.478 287.814 279.379 287.814C286.279 287.814 291.873 293.408 291.873 300.308C291.873 330.112 267.139 353.692 237.354 353.692C207.568 353.692 182.835 330.112 182.835 300.308C182.835 293.408 188.428 287.814 195.329 287.814Z" fill="#1575E5"/>
<rect x="145.059" y="194.674" width="184.002" height="54.519" rx="27.2595" fill="#1575E5"/>
<rect x="55.8027" y="292.475" width="77.2352" height="27.409" rx="13.7045" transform="rotate(-90 55.8027 292.475)" fill="#A6CFFF"/>
<rect x="389.787" y="292.475" width="77.2352" height="27.409" rx="13.7045" transform="rotate(-90 389.787 292.475)" fill="#A6CFFF"/>
</g>
</svg>
