<svg width="49" height="49" viewBox="0 0 49 49" fill="none" xmlns="http://www.w3.org/2000/svg">
    <rect width="49" height="49" rx="6" fill="#E6F4FF" />
    <path fill-rule="evenodd" clip-rule="evenodd"
        d="M24.8043 7L37.9611 12.7013L38.1112 13.3831C38.9541 17.2132 38.9443 22.8554 37.1716 28.3354C35.3901 33.8424 31.7938 39.2774 25.3962 42.4758L24.8148 42.7664L24.2227 42.4985C17.0949 39.274 13.2381 33.6703 11.4079 28.0588C9.59163 22.4901 9.744 16.8458 10.6777 13.3265L10.8524 12.668L24.8043 7ZM13.1619 14.6776C12.5047 17.7388 12.4649 22.4917 14.0044 27.2119C15.5916 32.0783 18.832 36.8459 24.7548 39.7314C29.9912 36.9021 33.0172 32.3045 34.573 27.4948C36.0892 22.8077 36.1787 18.0002 35.5782 14.6452L24.7702 9.96174L13.1619 14.6776Z"
        fill="#0958D9" />
    <path fill-rule="evenodd" clip-rule="evenodd"
        d="M30.7163 20.3041C31.2507 20.8362 31.2526 21.7008 30.7206 22.2353L23.5583 29.4294C23.0466 29.9435 22.2222 29.9677 21.6811 29.4846L17.6524 25.8875C17.0898 25.3852 17.0409 24.522 17.5432 23.9594C18.0455 23.3968 18.9088 23.348 19.4713 23.8503L22.5353 26.586L28.7851 20.3084C29.3172 19.7739 30.1818 19.772 30.7163 20.3041Z"
        fill="#0958D9" />
</svg>