<svg width="80" height="80" viewBox="0 0 80 80" fill="none" xmlns="http://www.w3.org/2000/svg">
<g id="Group 1000005886">
<g id="Group 1000005882">
<rect id="Rectangle 1385" width="80" height="80" rx="40" fill="#E6F4FF"/>
</g>
<path id="Vector 118" d="M55.5792 62.5461C58.6928 62.739 63.7636 61.9672 59.1376 57.3363C54.5117 52.7054 52.4656 51.0652 52.0208 50.824C50.6864 49.9075 48.24 49.0006 49.1296 52.7054C50.0192 56.4101 51.7243 59.8447 52.4656 61.0989C52.8363 62.2084 52.688 64.138 49.1296 62.9802C48.4624 62.6908 46.9056 61.591 46.016 59.507C44.904 56.9021 43.792 58.6387 43.792 59.507L44.0144 63.5591C44.1627 64.3792 43.2138 64.659 38.232 59.2176C37.7872 58.5423 36.6307 58.4072 35.5632 63.2697C35.4891 63.8968 34.2288 64.3695 29.7808 61.2436C29.4843 60.9542 23.813 61.8225 21.5 62.9802" stroke="#0958D9" stroke-width="1.75717" stroke-linecap="round"/>
<g id="Group 1000005883">
<path id="Vector" d="M43.6939 20.2695L44.0704 20.3636L45.5763 21.5872L46.8939 22.6225L48.3998 23.846L49.9057 25.0695L51.2234 26.1048L52.7292 27.3284L54.0469 28.3636H54.4234L55.2704 27.3284L55.741 26.9519L56.3057 26.7636L57.2469 26.8578L57.8116 27.2342L58.2822 27.9872V29.0225L57.8116 29.8695L56.7763 31.0931L55.741 32.4107L54.5175 33.9166L53.4822 35.2342L52.2587 36.7401L51.2234 38.0578L49.9998 39.5637L48.9645 40.8813L48.1175 41.9166L47.3645 42.3872H46.3292L45.5763 41.9166L45.1998 41.3519L45.1057 40.9754V40.3166L45.5763 39.3754L46.6116 38.1519L47.6469 36.8342L48.8704 35.3284L49.9057 34.0107L51.1292 32.5048L51.9763 31.3754L51.5057 30.9048L50.6587 30.246H50.4704L49.7175 31.1872L48.4939 32.6931L47.4587 34.0107L46.2351 35.5166L45.1998 36.8342L43.9763 38.3401L42.941 39.6578L41.7175 41.1636L40.6822 42.4813L39.4587 43.9872L38.4234 45.3048L37.1998 46.8107L36.1645 48.1284L34.941 49.6342L33.9057 50.9519L32.6822 52.4578L31.6469 53.7754L30.4234 55.2813L29.9528 55.7519L28.4469 54.5284L27.1292 53.4931L25.5292 52.1754L24.2116 51.1401L22.7057 49.9166L21.3881 48.8813L21.1057 48.6931L21.2939 48.2225L22.3292 46.9989L23.3645 45.6813L24.5881 44.1754L25.6234 42.8578L26.8469 41.3519L27.8822 40.0342L29.1057 38.5284L30.141 37.2107L31.3645 35.7048L32.3998 34.3872L33.6234 32.8813L34.6587 31.5636L35.8822 30.0578L36.9175 28.7401L38.141 27.2342L39.1763 25.9166L40.3998 24.4107L41.4351 23.0931L42.6587 21.5872L43.6939 20.2695Z" fill="#0958D9"/>
<path id="Vector_2" d="M49.7177 15H51.7883L53.0118 15.3765L53.8589 15.8471L54.8001 16.6L55.4589 17.3529L55.9295 18.1059L56.4001 19.5176L56.4942 20.1765V21.3059L56.1177 22.8118L55.6471 23.7529L54.6118 25.0706L53.8589 26.0118L53.4824 25.8235L52.1648 24.7882L50.6589 23.5647L49.3413 22.5294L47.8354 21.3059L46.5177 20.2706L45.0118 19.0471L44.9177 18.7647L45.953 17.4471L46.8001 16.5059L47.553 15.8471L48.6824 15.2824L49.7177 15Z" fill="#0958D9"/>
<path id="Vector_3" d="M20.1647 50.2949L20.5412 50.4832L21.8588 51.5185L23.3647 52.742L24.6824 53.7773L26.1882 55.0008L27.5059 56.0361L28.5412 56.8832L28.4471 57.1655L24.7765 58.8596L21.3882 60.3655L19.1294 61.4008L18.4706 61.3067L18.0941 60.9302L18 60.2714L19.8824 51.2361L20.0706 50.389L20.1647 50.2949Z" fill="#0958D9"/>
</g>
</g>
</svg>
