<svg width="43" height="42" viewBox="0 0 43 42" fill="none" xmlns="http://www.w3.org/2000/svg">
<path fill-rule="evenodd" clip-rule="evenodd" d="M18.933 32.1459C19.738 32.5834 20.7354 32.8109 21.7504 32.8109C22.7654 32.8109 23.7629 32.5834 24.5679 32.1459L30.1679 29.0309C31.8304 28.1034 33.1429 25.8634 33.1429 23.9559V18.0234C33.1429 16.0984 31.8479 13.8759 30.1679 12.9484L24.5679 9.83344C22.9579 8.94094 20.543 8.94094 18.933 9.83344L13.3329 12.9484C11.6704 13.8759 10.3579 16.1159 10.3579 18.0234V23.9559C10.3579 25.8809 11.6529 28.1034 13.3329 29.0309L18.933 32.1459ZM20.2104 12.1434C20.6129 11.9159 21.1729 11.8109 21.7504 11.8109C22.3279 11.8109 22.8879 11.9159 23.2904 12.1434L28.8904 15.2584C29.0699 15.3573 29.2455 15.493 29.4111 15.6548L21.7502 20.0884L14.0934 15.653C14.2579 15.4918 14.4323 15.3566 14.6105 15.2584L20.2104 12.1434ZM12.9829 18.0354L20.4375 22.3394V29.9455C20.3573 29.9125 20.2813 29.876 20.2104 29.8359L14.6105 26.7209C13.753 26.2484 12.9829 24.9359 12.9829 23.9559V18.0354ZM23.0625 29.9458C23.1431 29.9128 23.2193 29.8761 23.2904 29.8359L28.8904 26.7209C29.7479 26.2484 30.5179 24.9184 30.5179 23.9559V18.0405L23.0625 22.3494V29.9458Z" fill="#0958D9"/>
<path d="M27.0003 39.8144C26.5278 39.8144 26.0904 39.5519 25.8629 39.1494C25.6354 38.7294 25.6353 38.2394 25.8803 37.8194L27.7178 34.7569C28.0853 34.1444 28.8903 33.9344 29.5203 34.3019C30.1503 34.6694 30.3429 35.4744 29.9754 36.1044L29.5028 36.8919C34.3328 35.7544 37.9554 31.4144 37.9554 26.2344C37.9554 25.5169 38.5504 24.9219 39.2679 24.9219C39.9854 24.9219 40.5804 25.5169 40.5804 26.2344C40.5629 33.7244 34.4728 39.8144 27.0003 39.8144Z" fill="#0958D9"/>
<path d="M4.25 17.0625C3.5325 17.0625 2.9375 16.4675 2.9375 15.75C2.9375 8.2775 9.0275 2.1875 16.5 2.1875C16.9725 2.1875 17.41 2.45 17.6375 2.8525C17.865 3.2725 17.865 3.7625 17.62 4.1825L15.7825 7.245C15.415 7.8575 14.61 8.0675 13.98 7.7C13.35 7.3325 13.1575 6.5275 13.525 5.8975L13.9975 5.11C9.16751 6.2475 5.54498 10.5875 5.54498 15.7675C5.56248 16.4675 4.9675 17.0625 4.25 17.0625Z" fill="#0958D9"/>
</svg>
