<svg width="34" height="34" viewBox="0 0 34 34" fill="none" xmlns="http://www.w3.org/2000/svg">
<g id="Group 1000005805">
<g id="Ellipse 1183">
<circle cx="17" cy="17" r="17" fill="white"/>
<circle cx="17" cy="17" r="16.5" stroke="black" stroke-opacity="0.15"/>
</g>
<path id="Union" fill-rule="evenodd" clip-rule="evenodd" d="M12.6952 13.9948C10.9238 16.0172 10.9853 19.0273 12.7451 20.9768C12.9168 21.167 12.9065 21.4584 12.7188 21.6328L11.6498 22.6257C11.4574 22.8044 11.1561 22.7889 10.9797 22.5943C8.40167 19.753 8.30831 15.3722 10.895 12.4182C12.1926 10.9346 13.9343 10.0758 15.7479 9.86044L15.7631 7.27507C15.7645 7.03883 16.0426 6.91323 16.2207 7.06856L20.7047 10.9778C20.8601 11.1133 20.8586 11.3551 20.7016 11.4887L16.1723 15.3432C15.9924 15.4964 15.7157 15.3675 15.7171 15.1312L15.7346 12.2879C14.5939 12.4873 13.5143 13.0564 12.6952 13.9948ZM21.3502 12.328C21.5427 12.1492 21.8439 12.1648 22.0203 12.3593C24.5984 15.2007 24.6917 19.5815 22.1051 22.5355C20.8074 24.0191 19.0656 24.8778 17.2521 25.0932L17.237 27.6786C17.2356 27.9149 16.9574 28.0404 16.7793 27.8851L12.2953 23.9759C12.1399 23.8404 12.1414 23.5985 12.2983 23.465L16.8278 19.6104C17.0077 19.4573 17.2844 19.5862 17.2829 19.8224L17.2654 22.6658C18.4062 22.4663 19.4858 21.8974 20.3048 20.9588C22.0762 18.9364 22.0148 15.9264 20.2549 13.9769C20.0832 13.7866 20.0934 13.4952 20.2812 13.3207L21.3502 12.328Z" fill="black" fill-opacity="0.88"/>
</g>
</svg>
